<svg width="198" height="198" viewBox="0 0 198 198" fill="none" xmlns="http://www.w3.org/2000/svg">
<path d="M172.425 16.5H25.575C23.1682 16.5 20.8599 17.4561 19.158 19.158C17.4561 20.8599 16.5 23.1682 16.5 25.575V172.425C16.5 174.832 17.4561 177.14 19.158 178.842C20.8599 180.544 23.1682 181.5 25.575 181.5H104.61V117.562H83.16V92.8125H104.61V74.25C104.166 69.892 104.68 65.4895 106.117 61.3514C107.555 57.2133 109.88 53.4397 112.93 50.2954C115.98 47.151 119.681 44.712 123.773 43.1495C127.866 41.5869 132.25 40.9386 136.62 41.25C143.041 41.2057 149.46 41.5362 155.842 42.24V64.515H142.725C132.33 64.515 130.35 69.465 130.35 76.6425V92.565H155.1L151.882 117.315H130.35V181.5H172.425C173.617 181.5 174.797 181.265 175.898 180.809C176.999 180.353 177.999 179.685 178.842 178.842C179.685 177.999 180.353 176.999 180.809 175.898C181.265 174.797 181.5 173.617 181.5 172.425V25.575C181.5 24.3833 181.265 23.2032 180.809 22.1021C180.353 21.0011 179.685 20.0007 178.842 19.158C177.999 18.3153 176.999 17.6469 175.898 17.1908C174.797 16.7347 173.617 16.5 172.425 16.5Z" fill="black"/>
</svg>
