<svg width="198" height="198" viewBox="0 0 198 198" fill="none" xmlns="http://www.w3.org/2000/svg">
<path d="M107.482 16.5C116.763 16.5248 121.474 16.5743 125.541 16.6898L127.142 16.7475C128.99 16.8135 130.813 16.896 133.016 16.995C141.794 17.4075 147.783 18.7935 153.038 20.8313C158.483 22.9268 163.07 25.7647 167.657 30.3435C171.854 34.4663 175.1 39.4554 177.17 44.9625C179.207 50.2177 180.593 56.2072 181.006 64.9935C181.105 67.188 181.187 69.0113 181.253 70.8675L181.303 72.468C181.427 76.527 181.476 81.2378 181.493 90.519L181.501 96.6735V107.481C181.521 113.499 181.458 119.516 181.311 125.532L181.262 127.132C181.196 128.989 181.113 130.812 181.014 133.006C180.602 141.793 179.199 147.774 177.17 153.037C175.1 158.545 171.854 163.534 167.657 167.657C163.534 171.853 158.545 175.1 153.038 177.169C147.783 179.207 141.794 180.593 133.016 181.005L127.142 181.252L125.541 181.302C121.474 181.417 116.763 181.475 107.482 181.492L101.327 181.5H90.528C84.5077 181.521 78.4874 181.458 72.4688 181.31L70.8683 181.261C68.9098 181.187 66.9518 181.101 64.9943 181.005C56.2163 180.593 50.2268 179.207 44.9633 177.169C39.4591 175.098 34.4729 171.852 30.3525 167.657C26.1528 163.535 22.9037 158.545 20.832 153.037C18.7943 147.782 17.4083 141.793 16.9958 133.006L16.7483 127.132L16.707 125.532C16.555 119.516 16.4862 113.499 16.5008 107.481V90.519C16.478 84.5015 16.5385 78.4839 16.6823 72.468L16.74 70.8675C16.806 69.0113 16.8885 67.188 16.9875 64.9935C17.4 56.2072 18.786 50.226 20.8238 44.9625C22.9003 39.4531 26.1551 34.4638 30.3608 30.3435C34.4788 26.1488 39.4621 22.9026 44.9633 20.8313C50.2268 18.7935 56.208 17.4075 64.9943 16.995C67.1888 16.896 69.0203 16.8135 70.8683 16.7475L72.4688 16.698C78.4846 16.5514 84.5022 16.4882 90.5198 16.5082L107.482 16.5ZM99.0008 57.75C88.0606 57.75 77.5685 62.096 69.8326 69.8318C62.0968 77.5677 57.7508 88.0598 57.7508 99C57.7508 109.94 62.0968 120.432 69.8326 128.168C77.5685 135.904 88.0606 140.25 99.0008 140.25C109.941 140.25 120.433 135.904 128.169 128.168C135.905 120.432 140.251 109.94 140.251 99C140.251 88.0598 135.905 77.5677 128.169 69.8318C120.433 62.096 109.941 57.75 99.0008 57.75ZM99.0008 74.25C102.251 74.2495 105.469 74.8891 108.473 76.1324C111.476 77.3757 114.204 79.1983 116.503 81.4962C118.802 83.7941 120.625 86.5222 121.869 89.5248C123.114 92.5274 123.754 95.7457 123.755 98.9959C123.755 102.246 123.116 105.465 121.873 108.468C120.629 111.471 118.807 114.199 116.509 116.498C114.211 118.797 111.483 120.62 108.48 121.864C105.478 123.109 102.259 123.749 99.009 123.75C92.4449 123.75 86.1497 121.142 81.5081 116.501C76.8666 111.859 74.259 105.564 74.259 99C74.259 92.4359 76.8666 86.1406 81.5081 81.4991C86.1497 76.8576 92.4449 74.25 99.009 74.25M142.322 45.375C139.586 45.375 136.963 46.4615 135.029 48.3955C133.096 50.3294 132.009 52.9525 132.009 55.6875C132.009 58.4225 133.096 61.0456 135.029 62.9795C136.963 64.9135 139.586 66 142.322 66C145.057 66 147.68 64.9135 149.614 62.9795C151.548 61.0456 152.634 58.4225 152.634 55.6875C152.634 52.9525 151.548 50.3294 149.614 48.3955C147.68 46.4615 145.057 45.375 142.322 45.375Z" fill="black"/>
</svg>
