<svg width="198" height="198" viewBox="0 0 198 198" fill="none" xmlns="http://www.w3.org/2000/svg">
<path d="M168.879 16.5012H29.1236C27.5526 16.4793 25.9927 16.7672 24.533 17.3483C23.0733 17.9294 21.7423 18.7923 20.6162 19.8879C19.49 20.9834 18.5907 22.29 17.9695 23.7332C17.3484 25.1763 17.0176 26.7277 16.9961 28.2987V169.704C17.0176 171.275 17.3484 172.826 17.9695 174.269C18.5907 175.712 19.49 177.019 20.6162 178.114C21.7423 179.21 23.0733 180.073 24.533 180.654C25.9927 181.235 27.5526 181.523 29.1236 181.501H168.879C170.45 181.523 172.009 181.235 173.469 180.654C174.929 180.073 176.26 179.21 177.386 178.114C178.512 177.019 179.412 175.712 180.033 174.269C180.654 172.826 180.985 171.275 181.006 169.704V28.2987C180.985 26.7277 180.654 25.1763 180.033 23.7332C179.412 22.29 178.512 20.9834 177.386 19.8879C176.26 18.7923 174.929 17.9294 173.469 17.3483C172.009 16.7672 170.45 16.4793 168.879 16.5012ZM66.7436 154.606H41.9936V80.3562H66.7436V154.606ZM54.3686 69.9611C50.9553 69.9611 47.6817 68.6052 45.2681 66.1916C42.8545 63.778 41.4986 60.5045 41.4986 57.0912C41.4986 53.6778 42.8545 50.4043 45.2681 47.9907C47.6817 45.5771 50.9553 44.2212 54.3686 44.2212C56.1811 44.0156 58.0165 44.1952 59.7548 44.7482C61.4931 45.3012 63.0949 46.2151 64.4555 47.4301C65.8161 48.6451 66.9047 50.1338 67.65 51.7986C68.3954 53.4635 68.7807 55.267 68.7807 57.0912C68.7807 58.9153 68.3954 60.7188 67.65 62.3837C66.9047 64.0486 65.8161 65.5372 64.4555 66.7522C63.0949 67.9672 61.4931 68.8811 59.7548 69.4341C58.0165 69.9871 56.1811 70.1667 54.3686 69.9611ZM156.009 154.606H131.259V114.759C131.259 104.776 127.711 98.2587 118.719 98.2587C115.936 98.279 113.226 99.152 110.954 100.76C108.682 102.368 106.958 104.633 106.014 107.251C105.368 109.19 105.088 111.232 105.189 113.274V154.524H80.4386V80.2736H105.189V90.7512C107.437 86.8498 110.707 83.6357 114.647 81.4551C118.586 79.2745 123.046 78.2099 127.546 78.3762C144.046 78.3762 156.009 89.0187 156.009 111.871V154.606Z" fill="black"/>
</svg>
