<svg width="198" height="198" viewBox="0 0 198 198" fill="none" xmlns="http://www.w3.org/2000/svg">
<path fill-rule="evenodd" clip-rule="evenodd" d="M179.024 66.306C178.252 60.4434 176.013 54.8704 172.515 50.103C168.18 45.7358 162.3 43.2495 156.147 43.1813C133.319 41.5313 99.0075 41.5312 99.0075 41.5312C99.0075 41.5312 64.7122 41.5313 41.8515 43.1813C35.7011 43.2517 29.825 45.7378 25.4917 50.103C21.9701 54.8613 19.7263 60.4425 18.9742 66.3143C17.9523 75.095 17.4015 83.9241 17.3242 92.7638V105.139C17.4015 113.978 17.9523 122.808 18.9742 131.588C19.7497 137.462 21.9772 143.056 25.4422 147.857C30.4252 152.279 36.8272 154.763 43.485 154.853C56.5447 156.099 99.0157 156.503 99.0157 156.503C99.0157 156.503 133.344 156.503 156.172 154.853C162.329 154.785 168.212 152.295 172.548 147.923C176.029 143.145 178.261 137.572 179.041 131.712C180.063 122.931 180.613 114.102 180.691 105.262V92.7555C180.593 83.9161 180.036 75.0878 179.024 66.306ZM82.5652 120.376V74.0115L127.115 97.2683L82.5652 120.376Z" fill="black"/>
</svg>
