<svg width="64" height="64" viewBox="0 0 64 64" fill="none" xmlns="http://www.w3.org/2000/svg">
<path d="M49.4174 57.3805H46.6902V9.19899C46.6902 8.82853 46.4629 8.4922 46.1197 8.35582L37.0288 4.71946C36.8652 4.65355 36.6856 4.63764 36.5129 4.67173L18.3311 8.30809C17.9061 8.39218 17.5993 8.76491 17.5993 9.19897V13.7444C17.5993 14.2467 18.0061 14.6535 18.5083 14.6535C19.0106 14.6535 19.4174 14.2467 19.4174 13.7444V9.94446L35.7811 6.67173V37.5174C35.7811 38.0197 36.1879 38.4265 36.6902 38.4265C37.1924 38.4265 37.5993 38.0197 37.5993 37.5174V6.9062L44.872 9.81529V57.3813H37.5993V40.9018C37.5993 40.3996 37.1924 39.9927 36.6902 39.9927C36.1879 39.9927 35.7811 40.3996 35.7811 40.9018V57.3813H33.0538V49.1997C33.0538 48.6975 32.647 48.2906 32.1447 48.2906H23.0538C22.5515 48.2906 22.1447 48.6975 22.1447 49.1997V57.3813H19.4174V17.4197C19.4174 16.9174 19.0106 16.5106 18.5083 16.5106C18.0061 16.5106 17.5993 16.9174 17.5993 17.4197V57.3813H14.872C14.3697 57.3813 13.9629 57.7881 13.9629 58.2903C13.9629 58.7926 14.3697 59.1994 14.872 59.1994H49.4174C49.9197 59.1994 50.3265 58.7926 50.3265 58.2903C50.3265 57.7881 49.9197 57.3813 49.4174 57.3813L49.4174 57.3805ZM31.2356 57.3805H23.9629V50.1078H31.2356V57.3805Z" fill="black"/>
<path d="M22.1074 12.1083V45.7444C22.1074 46.2467 22.5142 46.6535 23.0165 46.6535C23.5188 46.6535 23.9256 46.2467 23.9256 45.7444V12.1083C23.9256 11.606 23.5188 11.1992 23.0165 11.1992C22.5142 11.1992 22.1074 11.606 22.1074 12.1083Z" fill="#000000"/>
<path d="M26.6529 45.7444C26.6529 46.2467 27.0597 46.6535 27.562 46.6535C28.0642 46.6535 28.4711 46.2467 28.4711 45.7444V12.1083C28.4711 11.606 28.0642 11.1992 27.562 11.1992C27.0597 11.1992 26.6529 11.606 26.6529 12.1083V45.7444Z" fill="#000000"/>
<path d="M31.1983 45.7444C31.1983 46.2467 31.6051 46.6535 32.1074 46.6535C32.6097 46.6535 33.0165 46.2467 33.0165 45.7444V12.1083C33.0165 11.606 32.6097 11.1992 32.1074 11.1992C31.6051 11.1992 31.1983 11.606 31.1983 12.1083V45.7444Z" fill="#000000"/>
</svg>
