<svg width="64" height="64" viewBox="0 0 64 64" fill="none" xmlns="http://www.w3.org/2000/svg">
<path fill-rule="evenodd" clip-rule="evenodd" d="M31.524 21C31.3343 21.0004 31.1486 21.0555 30.989 21.1585C30.8294 21.2616 30.7025 21.4085 30.6232 21.5817L28.028 27.2333L21.8764 27.9667C21.6878 27.9893 21.5096 28.0656 21.3628 28.1868C21.216 28.308 21.1069 28.4689 21.0484 28.6505C20.9898 28.8321 20.9843 29.0267 21.0324 29.2114C21.0806 29.396 21.1804 29.5629 21.32 29.6923L25.8705 33.9159L24.6623 40.0228C24.625 40.2099 24.6418 40.4039 24.7108 40.5817C24.7798 40.7596 24.898 40.9138 25.0516 41.0262C25.2051 41.1386 25.3875 41.2044 25.5771 41.2158C25.7667 41.2273 25.9556 41.1839 26.1214 41.0908L31.5279 38.0481L36.9343 41.0869C37.1001 41.1804 37.289 41.2242 37.4787 41.2131C37.6684 41.2019 37.851 41.1364 38.0047 41.0242C38.1585 40.912 38.2771 40.7578 38.3463 40.58C38.4155 40.4021 38.4326 40.2081 38.3954 40.0208L37.1872 33.914L41.7318 29.6865C41.8703 29.5568 41.9691 29.39 42.0164 29.2058C42.0637 29.0216 42.0577 28.8276 41.9991 28.6467C41.9404 28.4659 41.8315 28.3056 41.6853 28.1848C41.539 28.0639 41.3615 27.9876 41.1735 27.9648L35.0239 27.2313L32.4267 21.5817C32.3473 21.4081 32.2201 21.2611 32.0601 21.158C31.9001 21.0549 31.7141 21.0001 31.524 21ZM31.524 24.3832L33.45 28.5756C33.5213 28.7312 33.6313 28.8656 33.7693 28.9661C33.9072 29.0666 34.0686 29.1298 34.2379 29.1496L38.8 29.6943L35.4266 32.8284C35.3021 32.9443 35.2093 33.0902 35.1568 33.2523C35.1044 33.4144 35.0941 33.5873 35.127 33.7545L36.0239 38.2835L32.0142 36.0307C31.8655 35.9472 31.698 35.9036 31.5276 35.9039C31.3573 35.9043 31.1899 35.9486 31.0415 36.0327L27.03 38.2913L27.9249 33.7584C27.9577 33.5912 27.9475 33.4183 27.895 33.2562C27.8426 33.0941 27.7497 32.9482 27.6253 32.8324L24.2538 29.6943L28.8139 29.1516C28.9831 29.1313 29.1442 29.0677 29.2818 28.9669C29.4195 28.866 29.529 28.7313 29.5999 28.5757L31.524 24.3832Z" fill="#000000"/>
<path fill-rule="evenodd" clip-rule="evenodd" d="M39.3861 4.00066C38.0418 3.97854 36.8255 4.51989 35.7675 5.05315C34.3568 5.76417 33.1166 6.454 31.8493 6.45583C30.5821 6.45767 29.34 5.7737 27.9273 5.06677C26.5145 4.35984 24.8222 3.63479 22.9216 4.25551C21.0209 4.87622 20.079 6.45978 19.3555 7.86435C18.6321 9.26892 18.0334 10.5555 17.0093 11.302C15.9852 12.0485 14.5756 12.2243 13.0172 12.4829C11.4588 12.7415 9.66495 13.1531 8.49205 14.7727C7.31917 16.3922 7.48927 18.2245 7.72944 19.7862C7.9696 21.3478 8.23991 22.7415 7.85005 23.9475C7.4602 25.1535 6.42583 26.1255 5.31705 27.2509C4.20828 28.3763 2.99712 29.7627 3.00001 31.7624C3.00299 33.7622 4.21865 35.146 5.33067 36.2681C6.4427 37.3903 7.48006 38.357 7.8734 39.5618C8.26674 40.7667 7.99815 42.1628 7.76251 43.7251C7.52687 45.2874 7.36313 47.1205 8.54069 48.7366C9.71826 50.3528 11.5145 50.7568 13.0736 51.0109C14.6328 51.265 16.0414 51.4385 17.0677 52.1821C18.094 52.9256 18.6981 54.2114 19.4256 55.6139C20.1531 57.0163 21.0969 58.5978 22.9994 59.213C24.9018 59.8282 26.5924 59.0991 28.0031 58.3881C29.4138 57.6771 30.6541 56.9872 31.9213 56.9854C33.1885 56.9836 34.4345 57.6714 35.8472 58.3784C37.26 59.0853 38.9523 59.8064 40.8529 59.1857C42.7536 58.565 43.6916 56.9834 44.4151 55.5788C45.1385 54.1743 45.7411 52.8857 46.7652 52.1393C47.7893 51.3928 49.197 51.217 50.7553 50.9584C52.3137 50.6997 54.1076 50.2881 55.2805 48.6685C56.4534 47.049 56.2833 45.2167 56.0431 43.6551C55.803 42.0935 55.5327 40.6997 55.9225 39.4937C56.3124 38.2877 57.3467 37.3157 58.4555 36.1903C59.5643 35.0649 60.7754 33.6786 60.7726 31.6788C60.7696 29.679 59.5559 28.2953 58.4438 27.1731C57.3318 26.0509 56.2925 25.0843 55.8992 23.8794C55.5058 22.6746 55.7744 21.2784 56.0101 19.7161C56.2457 18.1538 56.4094 16.3227 55.2319 14.7066C54.0543 13.0904 52.2581 12.6845 50.6989 12.4304C49.1398 12.1762 47.7312 12.0047 46.7049 11.2611C45.6786 10.5176 45.0764 9.22985 44.3489 7.82739C43.6214 6.42492 42.6737 4.84738 40.7712 4.23217C40.2956 4.07836 39.8341 4.00803 39.3861 4.00066ZM39.316 5.98698C39.5935 5.9906 39.8729 6.03411 40.1604 6.12705C41.31 6.49882 41.8936 7.42143 42.5805 8.74565C43.2674 10.0699 43.9642 11.7335 45.5357 12.872C47.1071 14.0104 48.9058 14.1553 50.3779 14.3953C51.8501 14.6352 52.9094 14.903 53.621 15.8797C54.3326 16.8563 54.2618 17.9453 54.0393 19.4204C53.8168 20.8955 53.402 22.6512 54.0043 24.4961C54.6066 26.341 55.9795 27.5162 57.0295 28.5758C58.0795 29.6354 58.7787 30.4742 58.7804 31.6827C58.7824 32.8911 58.0842 33.7309 57.0373 34.7935C55.9904 35.8561 54.6226 37.0343 54.0257 38.8809C53.4287 40.7275 53.8495 42.4841 54.0763 43.9586C54.3031 45.4331 54.3746 46.5226 53.6658 47.5013C52.957 48.4799 51.9 48.7492 50.4285 48.9934C48.9571 49.2377 47.1583 49.3854 45.5902 50.5284C44.022 51.6714 43.3297 53.3383 42.6467 54.6645C41.9636 55.9907 41.3828 56.9177 40.2343 57.2928C39.0857 57.6679 38.0722 57.2619 36.7383 56.5944C35.4044 55.9269 33.8618 54.9904 31.9214 54.9933C29.981 54.996 28.4383 55.9386 27.1063 56.6099C25.7743 57.2813 24.7619 57.6879 23.6123 57.3161C22.4627 56.9444 21.881 56.0198 21.1941 54.6956C20.5072 53.3714 19.8084 51.7077 18.237 50.5693C16.6655 49.4308 14.8669 49.2859 13.3947 49.046C11.9226 48.806 10.8632 48.5401 10.1516 47.5635C9.44003 46.5869 9.51084 45.4979 9.73335 44.0228C9.95584 42.5476 10.3706 40.79 9.76832 38.9451C9.16603 37.1002 7.79504 35.925 6.74506 34.8655C5.69507 33.8059 4.99395 32.9689 4.99219 31.7605C4.9902 30.5521 5.68842 29.7104 6.73533 28.6478C7.78225 27.5851 9.14802 26.407 9.74497 24.5603C10.3419 22.7137 9.92504 20.9591 9.69825 19.4846C9.47149 18.0101 9.39609 16.9206 10.1049 15.9419C10.8136 14.9632 11.8707 14.6939 13.3421 14.4498C14.8136 14.2056 16.6123 14.0558 18.1805 12.9128C19.7486 11.7698 20.4428 10.103 21.1259 8.77677C21.809 7.45057 22.3897 6.52743 23.5383 6.15234C24.6868 5.77725 25.7023 6.17938 27.0362 6.84687C28.3702 7.51436 29.9128 8.4508 31.8532 8.44799C33.7936 8.44518 35.3343 7.5046 36.6663 6.83325C37.6653 6.32975 38.4835 5.97609 39.316 5.98698ZM31.8843 13.3817C25.6157 13.3817 19.7821 16.5828 16.414 21.8678C16.2717 22.0902 16.2235 22.36 16.2801 22.6179C16.3366 22.8759 16.4932 23.1008 16.7155 23.2433C16.938 23.3856 17.2078 23.4337 17.4657 23.3772C17.7236 23.3206 17.9485 23.164 18.091 22.9417C21.0945 18.2287 26.2937 15.3758 31.8843 15.3758C37.4767 15.3758 42.6843 18.2265 45.6874 22.9417C45.8286 23.1648 46.0526 23.3226 46.3102 23.3806C46.5677 23.4386 46.8377 23.392 47.0609 23.251C47.2832 23.1086 47.4399 22.8837 47.4964 22.6257C47.553 22.3678 47.5048 22.098 47.3625 21.8756C43.9949 16.588 38.1548 13.3817 31.8843 13.3817ZM17.2077 40.0443C17.033 40.0514 16.8633 40.1044 16.7155 40.198C16.4932 40.3404 16.3366 40.5654 16.2801 40.8233C16.2235 41.0812 16.2717 41.351 16.414 41.5734C19.7821 46.8584 25.6157 50.0595 31.8843 50.0595C38.1529 50.0595 43.9944 46.8584 47.3625 41.5734C47.4327 41.4629 47.4804 41.3397 47.5029 41.2108C47.5255 41.0818 47.5224 40.9497 47.4938 40.822C47.4653 40.6942 47.4119 40.5734 47.3366 40.4663C47.2613 40.3592 47.1656 40.2681 47.0551 40.198C46.9447 40.1277 46.8216 40.0798 46.6928 40.0571C46.5639 40.0344 46.4319 40.0373 46.3041 40.0657C46.1761 40.0945 46.055 40.1484 45.9478 40.2242C45.8406 40.2999 45.7495 40.3962 45.6796 40.5073C42.6761 45.2203 37.475 48.0654 31.8843 48.0654C26.2936 48.0654 21.0945 45.2203 18.091 40.5073C17.9974 40.3593 17.8665 40.2386 17.7115 40.1573C17.5564 40.076 17.3827 40.037 17.2077 40.0443Z" fill="black"/>
</svg>
