<?xml version="1.0" encoding="UTF-8"?>
<svg id="Layer_2" data-name="Layer 2" xmlns="http://www.w3.org/2000/svg" viewBox="0 0 410.81 34.6">
  <defs>
    <style>
      .cls-1, .cls-2 {
        fill: #fefefe;
      }

      .cls-2 {
        fill-rule: evenodd;
      }
    </style>
  </defs>
  <g id="Layer_1-2" data-name="Layer 1">
    <g>
      <path class="cls-1" d="M68.05,32.83c-2.6,0-4.84-.35-6.73-1.06s-3.31-1.77-4.37-3.19c-1.06-1.3-1.54-2.83-1.54-4.72,0-1.77,.47-3.31,1.54-4.49,.94-1.3,2.36-2.24,4.25-2.95,1.89-.59,4.25-.94,6.85-.94s5.08,.35,6.97,.94c1.89,.71,3.31,1.65,4.37,2.95,.94,1.3,1.42,2.72,1.42,4.49,0,1.89-.47,3.43-1.54,4.72-1.06,1.42-2.48,2.48-4.37,3.19-2.01,.71-4.25,1.06-6.85,1.06h0Zm0-3.54c2.6,0,4.61-.47,6.02-1.54,1.54-.94,2.24-2.24,2.24-4.02,0-1.65-.71-2.95-2.24-3.9-1.42-.94-3.43-1.54-6.02-1.54s-4.49,.59-5.91,1.54-2.13,2.24-2.13,3.9c0,1.77,.71,3.07,2.13,4.02,1.42,1.06,3.43,1.54,5.91,1.54h0Zm0-11.46c-2.36,0-4.49-.35-6.14-.94-1.77-.59-3.07-1.54-4.02-2.72-.83-1.06-1.3-2.48-1.3-4.13s.47-3.19,1.42-4.37,2.36-2.13,4.02-2.83c1.77-.71,3.78-1.06,6.02-1.06,2.36,0,4.37,.35,6.14,1.06,1.77,.71,3.07,1.65,4.02,2.83,1.06,1.18,1.54,2.72,1.54,4.37s-.47,3.07-1.42,4.13c-.94,1.18-2.24,2.13-4.02,2.72-1.65,.59-3.78,.94-6.26,.94h0Zm0-2.72c2.24,0,4.02-.47,5.31-1.3,1.18-.94,1.89-2.13,1.89-3.54,0-1.54-.71-2.83-2.01-3.66-1.3-.83-3.07-1.3-5.2-1.3s-3.78,.47-5.08,1.3-1.89,2.13-1.89,3.66c0,1.42,.59,2.6,1.89,3.54,1.18,.83,2.95,1.3,5.08,1.3h0Zm34.37,17.72c-2.6,0-4.84-.59-6.73-1.89-2.01-1.18-3.54-2.95-4.72-5.2-1.06-2.36-1.65-5.2-1.65-8.39s.59-6.14,1.65-8.39c1.18-2.36,2.72-4.13,4.72-5.31,1.89-1.18,4.13-1.89,6.73-1.89,2.36,0,4.61,.71,6.61,1.89,2.01,1.18,3.54,2.95,4.72,5.31,1.06,2.24,1.65,5.08,1.65,8.39s-.59,6.02-1.65,8.39c-1.18,2.24-2.72,4.02-4.72,5.2-2.01,1.3-4.25,1.89-6.61,1.89h0Zm0-3.9c1.65,0,3.07-.35,4.37-1.3,1.3-.83,2.24-2.13,2.95-3.9,.71-1.65,1.06-3.9,1.06-6.38s-.35-4.72-1.06-6.5c-.71-1.77-1.65-3.07-2.95-3.9-1.3-.83-2.72-1.3-4.37-1.3-1.77,0-3.19,.47-4.49,1.3-1.3,.83-2.24,2.13-2.95,3.9-.71,1.77-1.06,3.9-1.06,6.5s.35,4.72,1.06,6.38c.71,1.77,1.65,3.07,2.95,3.9,1.3,.94,2.72,1.3,4.49,1.3h0Zm34.72,3.9c-2.6,0-4.72-.59-6.73-1.89-2.01-1.18-3.54-2.95-4.72-5.2-1.06-2.36-1.65-5.2-1.65-8.39s.59-6.14,1.65-8.39c1.18-2.36,2.72-4.13,4.72-5.31,2.01-1.18,4.13-1.89,6.73-1.89s4.61,.71,6.61,1.89,3.54,2.95,4.72,5.31c1.06,2.24,1.65,5.08,1.65,8.39s-.59,6.02-1.65,8.39c-1.18,2.24-2.72,4.02-4.72,5.2-2.01,1.3-4.13,1.89-6.61,1.89h0Zm0-3.9c1.65,0,3.07-.35,4.37-1.3,1.3-.83,2.24-2.13,2.95-3.9,.71-1.65,1.06-3.9,1.06-6.38s-.35-4.72-1.06-6.5c-.71-1.77-1.65-3.07-2.95-3.9-1.3-.83-2.72-1.3-4.37-1.3-1.77,0-3.19,.47-4.49,1.3-1.3,.83-2.24,2.13-2.95,3.9-.71,1.77-1.06,3.9-1.06,6.5s.35,4.72,1.06,6.38c.71,1.77,1.65,3.07,2.95,3.9,1.3,.94,2.72,1.3,4.49,1.3h0Zm34.72,3.9c-2.48,0-4.72-.59-6.73-1.89-2.01-1.18-3.54-2.95-4.72-5.2-1.06-2.36-1.65-5.2-1.65-8.39s.59-6.14,1.65-8.39c1.18-2.36,2.72-4.13,4.72-5.31,2.01-1.18,4.25-1.89,6.73-1.89s4.61,.71,6.61,1.89c2.01,1.18,3.54,2.95,4.72,5.31,1.06,2.24,1.65,5.08,1.65,8.39s-.59,6.02-1.65,8.39c-1.18,2.24-2.72,4.02-4.72,5.2-2.01,1.3-4.13,1.89-6.61,1.89h0Zm0-3.9c1.65,0,3.07-.35,4.37-1.3,1.3-.83,2.24-2.13,2.95-3.9,.71-1.65,1.06-3.9,1.06-6.38s-.35-4.72-1.06-6.5c-.71-1.77-1.65-3.07-2.95-3.9-1.3-.83-2.72-1.3-4.37-1.3-1.77,0-3.19,.47-4.49,1.3-1.3,.83-2.24,2.13-2.95,3.9-.71,1.77-1.06,3.9-1.06,6.5s.35,4.72,1.06,6.38c.71,1.77,1.65,3.07,2.95,3.9,1.3,.94,2.72,1.3,4.49,1.3h0Zm51.85,3.9c-2.24,0-4.37-.35-6.5-1.06-2.13-.59-3.9-1.54-5.2-2.6l2.13-3.43c1.06,.94,2.48,1.65,4.13,2.36,1.65,.59,3.54,.83,5.43,.83,2.48,0,4.37-.47,5.67-1.42,1.3-1.06,1.89-2.36,1.89-4.02,0-1.06-.24-2.01-.83-2.95-.59-.83-1.54-1.42-2.95-1.89-1.42-.47-3.43-.71-5.91-.71h-7.2l1.65-15.83h18.07v3.78h-16.42l2.36-2.13-1.3,12.52-2.36-2.01h6.14c3.19,0,5.79,.35,7.8,1.18,1.89,.71,3.31,1.77,4.25,3.19,.83,1.3,1.3,2.95,1.3,4.72s-.47,3.31-1.3,4.72c-.94,1.42-2.24,2.6-4.02,3.43s-4.02,1.3-6.85,1.3h0Zm32.72,0c-2.6,0-4.84-.35-6.73-1.06-1.89-.71-3.43-1.77-4.37-3.19-1.06-1.3-1.65-2.83-1.65-4.72,0-1.77,.59-3.31,1.54-4.49,.94-1.3,2.48-2.24,4.37-2.95,1.89-.59,4.13-.94,6.85-.94s4.96,.35,6.85,.94c1.89,.71,3.31,1.65,4.37,2.95,.94,1.3,1.54,2.72,1.54,4.49,0,1.89-.59,3.43-1.54,4.72-1.06,1.42-2.6,2.48-4.49,3.19s-4.13,1.06-6.73,1.06h0Zm0-3.54c2.48,0,4.49-.47,6.02-1.54,1.42-.94,2.13-2.24,2.13-4.02,0-1.65-.71-2.95-2.13-3.9-1.54-.94-3.54-1.54-6.02-1.54s-4.61,.59-6.02,1.54c-1.42,.94-2.13,2.24-2.13,3.9,0,1.77,.71,3.07,2.13,4.02,1.42,1.06,3.43,1.54,6.02,1.54h0Zm0-11.46c-2.48,0-4.61-.35-6.26-.94s-3.07-1.54-3.9-2.72c-.94-1.06-1.42-2.48-1.42-4.13s.47-3.19,1.42-4.37c.94-1.18,2.36-2.13,4.13-2.83,1.65-.71,3.66-1.06,6.02-1.06s4.25,.35,6.02,1.06,3.07,1.65,4.13,2.83c.94,1.18,1.42,2.72,1.42,4.37s-.47,3.07-1.42,4.13c-.83,1.18-2.24,2.13-3.9,2.72-1.77,.59-3.9,.94-6.26,.94h0Zm0-2.72c2.24,0,3.9-.47,5.2-1.3,1.3-.94,1.89-2.13,1.89-3.54,0-1.54-.59-2.83-2.01-3.66-1.3-.83-2.95-1.3-5.08-1.3s-3.9,.47-5.08,1.3c-1.3,.83-2.01,2.13-2.01,3.66,0,1.42,.71,2.6,1.89,3.54,1.3,.83,2.95,1.3,5.2,1.3h0Zm51.5,17.72c-2.36,0-4.49-.35-6.61-1.06-2.13-.59-3.9-1.54-5.2-2.6l2.13-3.43c1.06,.94,2.48,1.65,4.13,2.36,1.77,.59,3.54,.83,5.43,.83,2.48,0,4.37-.47,5.67-1.42,1.3-1.06,1.89-2.36,1.89-4.02,0-1.06-.24-2.01-.83-2.95-.59-.83-1.54-1.42-2.95-1.89-1.42-.47-3.43-.71-5.91-.71h-7.2l1.65-15.83h18.07v3.78h-16.42l2.48-2.13-1.42,12.52-2.36-2.01h6.26c3.19,0,5.67,.35,7.68,1.18,1.89,.71,3.31,1.77,4.25,3.19,.83,1.3,1.3,2.95,1.3,4.72s-.47,3.31-1.3,4.72c-.94,1.42-2.24,2.6-4.02,3.43-1.77,.83-4.02,1.3-6.73,1.3h0Zm30.24,0c-2.24,0-4.49-.35-6.61-1.06-2.13-.59-3.78-1.54-5.2-2.6l2.13-3.43c1.06,.94,2.48,1.65,4.13,2.36,1.77,.59,3.54,.83,5.43,.83,2.48,0,4.37-.47,5.67-1.42,1.3-1.06,2.01-2.36,2.01-4.02,0-1.06-.35-2.01-.94-2.95-.59-.83-1.54-1.42-2.95-1.89-1.42-.47-3.43-.71-5.79-.71h-7.32l1.65-15.83h18.07v3.78h-16.3l2.36-2.13-1.3,12.52-2.48-2.01h6.26c3.19,0,5.79,.35,7.68,1.18,2.01,.71,3.43,1.77,4.25,3.19,.94,1.3,1.3,2.95,1.3,4.72s-.35,3.31-1.3,4.72c-.83,1.42-2.24,2.6-4.02,3.43s-4.02,1.3-6.73,1.3h0Zm30.24,0c-2.24,0-4.49-.35-6.61-1.06-2.13-.59-3.78-1.54-5.2-2.6l2.13-3.43c1.06,.94,2.48,1.65,4.13,2.36,1.77,.59,3.54,.83,5.43,.83,2.48,0,4.37-.47,5.67-1.42,1.3-1.06,2.01-2.36,2.01-4.02,0-1.06-.35-2.01-.94-2.95-.59-.83-1.54-1.42-2.95-1.89s-3.31-.71-5.79-.71h-7.32l1.65-15.83h18.07v3.78h-16.3l2.36-2.13-1.3,12.52-2.48-2.01h6.26c3.19,0,5.79,.35,7.68,1.18,2.01,.71,3.43,1.77,4.25,3.19,.94,1.3,1.3,2.95,1.3,4.72s-.35,3.31-1.3,4.72c-.83,1.42-2.24,2.6-4.02,3.43s-4.02,1.3-6.73,1.3h0Zm30.24,0c-2.24,0-4.49-.35-6.61-1.06-2.13-.59-3.78-1.54-5.2-2.6l2.13-3.43c1.06,.94,2.48,1.65,4.13,2.36,1.77,.59,3.54,.83,5.55,.83,2.36,0,4.25-.47,5.55-1.42,1.3-1.06,2.01-2.36,2.01-4.02,0-1.06-.35-2.01-.94-2.95-.47-.83-1.54-1.42-2.95-1.89-1.42-.47-3.31-.71-5.79-.71h-7.32l1.77-15.83h17.95v3.78h-16.3l2.36-2.13-1.3,12.52-2.36-2.01h6.14c3.19,0,5.79,.35,7.68,1.18,2.01,.71,3.43,1.77,4.25,3.19,.94,1.3,1.42,2.95,1.42,4.72s-.47,3.31-1.42,4.72c-.83,1.42-2.13,2.6-4.02,3.43-1.77,.83-4.02,1.3-6.73,1.3h0Z"/>
      <path class="cls-2" d="M18.56,0c8.62,0,15.94,7.32,15.94,16.06h-2.36c0-4.25-2.48-8.86-5.91-11.1-1.54-1.06-2.83-1.65-4.61-2.13-.83-.12-2.13-.35-3.07-.35V0Z"/>
      <path class="cls-2" d="M12.77,9.21c0,.71-1.06,1.42-1.54,1.77l-1.77,1.65c.47,1.06,.12,1.54,1.89,4.37,.94,1.77,1.3,1.89,2.36,3.07,.94,1.06,.47,.47,1.18,1.18,.59,.59,1.89,1.54,2.6,2.01,2.83,1.65,3.43,1.42,4.37,1.89l1.65-1.77c1.77-2.01,1.42-2.48,6.61,.59,1.77,1.18,5.08,2.72,4.13,4.13-.47,.71-1.18,1.42-1.65,1.89-.35,.35-.59,.47-1.06,.83-.83,.94-2.95,2.48-3.9,3.19-1.06,.71-1.18,.71-2.6,.35-.94-.12-2.01-.47-2.83-.83-3.66-1.3-8.15-4.02-10.87-6.73-.71-.59-1.3-1.06-1.89-1.65l-2.48-2.72c-2.36-2.48-4.72-6.73-6.02-10.04-.24-.83-.59-1.77-.71-2.6-.47-1.89-.35-1.89,.94-3.78L3.21,3.54q.24-.24,.47-.47C4.39,2.24,6.4-.47,7.58,.24c1.06,.71,5.2,7.56,5.2,8.98h0Z"/>
      <path class="cls-2" d="M18.56,6.26c5.31,0,9.69,4.37,9.69,9.8h-2.36c0-2.01-.94-4.02-2.13-5.2q-.24-.24-.47-.35t-.47-.47c-1.18-.83-2.6-1.3-4.25-1.3v-2.48Z"/>
    </g>
  </g>
</svg>