<?xml version="1.0" encoding="UTF-8"?>
<svg id="Layer_2" data-name="Layer 2" xmlns="http://www.w3.org/2000/svg" xmlns:xlink="http://www.w3.org/1999/xlink" viewBox="0 0 428.39 325.75">
  <defs>
    <style>
      .cls-1 {
        fill: url(#linear-gradient);
      }

      .cls-2, .cls-3 {
        fill: #fefefe;
      }

      .cls-3 {
        fill-rule: evenodd;
      }
    </style>
    <linearGradient id="linear-gradient" x1="137.36" y1="186.26" x2="291.02" y2="186.26" gradientUnits="userSpaceOnUse">
      <stop offset="0" stop-color="#c5a037"/>
      <stop offset="1" stop-color="#c2982f"/>
    </linearGradient>
  </defs>
  <g id="Layer_1-2" data-name="Layer 1">
    <g>
      <path class="cls-2" d="M100.98,263.74c-2.6,0-5.08-.35-7.44-1.18-2.48-.83-4.37-1.89-5.91-3.31l2.36-4.02c1.18,1.06,2.83,2.01,4.72,2.72,2.01,.83,4.02,1.18,6.26,1.18,2.72,0,4.84-.59,6.38-1.77,1.42-1.18,2.24-2.72,2.24-4.72,0-1.89-.71-3.43-2.24-4.61-1.42-1.18-3.66-1.77-6.73-1.77h-2.95v-3.66l10.75-13.23,.83,2.01h-19.96v-4.49h23.98v3.54l-10.75,13.23-2.72-1.54h1.77c4.37,0,7.68,.94,9.92,2.95,2.13,1.89,3.31,4.49,3.31,7.56,0,2.01-.47,3.9-1.54,5.55-.94,1.77-2.48,3.07-4.61,4.02-2.01,1.06-4.61,1.54-7.68,1.54h0Zm23.98-12.52v-4.37h13.94v4.37h-13.94Zm24.09,3.19v-3.66l18.66-23.86h5.55l-18.43,23.86-2.72-.83h29.17v4.49h-32.24Zm20.2,8.86v-8.86l.24-4.49v-7.91h4.84v21.26h-5.08Zm45.59,0v-36.38h16.42c4.13,0,7.32,.83,9.69,2.48,2.24,1.77,3.31,4.02,3.31,6.97,0,1.89-.47,3.66-1.3,4.96-.94,1.3-2.13,2.36-3.54,3.07-1.54,.83-3.19,1.18-4.84,1.18l.94-1.65c2.01,0,3.9,.47,5.43,1.18,1.65,.71,2.95,1.77,3.9,3.19,.94,1.42,1.42,3.07,1.42,5.2,0,3.19-1.18,5.55-3.54,7.32-2.36,1.65-5.91,2.48-10.51,2.48h-17.36Zm5.2-4.13h12.05c2.83,0,5.08-.47,6.61-1.54,1.54-.94,2.24-2.48,2.24-4.49,0-2.13-.71-3.66-2.24-4.72-1.54-.94-3.78-1.42-6.61-1.42h-12.52v-4.25h11.22c2.6,0,4.61-.47,6.14-1.42,1.42-.94,2.13-2.48,2.13-4.37,0-2.01-.71-3.43-2.13-4.37-1.54-.94-3.54-1.42-6.14-1.42h-10.75v27.99Zm65.2-32.24h5.2v36.38h-5.2v-36.38Zm-20.91,36.38h-5.2v-36.38h5.2v36.38Zm21.38-16.18h-21.97v-4.49h21.97v4.49Zm25.04,7.44l-.24-6.38,20.67-21.26h5.91l-15.94,16.89-2.95,3.19-7.44,7.56Zm-4.61,8.74v-36.38h5.2v36.38h-5.2Zm25.87,0l-15-17.36,3.54-3.78,17.48,21.14h-6.02ZM0,325.39v-36.5H5.2v31.89H24.92v4.61H0Zm35.79,0v-36.5h5.2v36.5h-5.2Zm20.91,0v-36.5h4.25l24.09,30h-2.24v-30h5.2v36.5h-4.25l-24.09-30h2.24v30h-5.2Zm51.61-8.86l-.24-6.38,20.67-21.26h6.02l-16.06,16.89-2.83,3.19-7.56,7.56Zm-4.49,8.86v-36.5h5.2v36.5h-5.2Zm25.75,0l-14.88-17.48,3.43-3.78,17.6,21.26h-6.14Zm12.28-12.17v-4.37h13.94v4.37h-13.94Zm27.17,12.17v-36.5h5.2v36.5h-5.2Zm21.02,0v-36.5h4.25l24.09,30h-2.24v-30h5.2v36.5h-4.25l-24.09-30h2.24v30h-5.2Zm69.8,0v-36.5h14.17c3.19,0,5.91,.47,8.15,1.54,2.24,.94,4.02,2.48,5.2,4.37,1.18,1.89,1.89,4.13,1.89,6.85s-.71,4.84-1.89,6.73c-1.18,1.89-2.95,3.31-5.2,4.37-2.24,1.06-4.96,1.54-8.15,1.54h-11.34l2.36-2.36v13.46h-5.2Zm24.33,0l-9.33-13.23h5.67l9.33,13.23h-5.67Zm-19.13-12.99l-2.36-2.6h11.22c3.31,0,5.79-.71,7.56-2.13,1.65-1.42,2.6-3.43,2.6-6.02s-.94-4.61-2.6-6.02c-1.77-1.42-4.25-2.13-7.56-2.13h-11.22l2.36-2.72v21.61Zm53.86,13.35c-2.72,0-5.31-.47-7.68-1.42-2.48-.94-4.49-2.24-6.26-3.9-1.65-1.65-3.07-3.66-4.02-5.91-.94-2.24-1.42-4.72-1.42-7.44s.47-5.08,1.42-7.32c.94-2.24,2.36-4.25,4.02-5.91,1.77-1.65,3.78-3.07,6.14-3.9,2.36-.94,4.96-1.42,7.8-1.42s5.32,.47,7.68,1.3c2.36,.94,4.37,2.24,6.14,3.9,1.77,1.77,3.07,3.66,4.02,5.91,1.06,2.24,1.54,4.84,1.54,7.44s-.47,5.2-1.54,7.44c-.94,2.36-2.24,4.25-4.02,5.91-1.77,1.77-3.78,3.07-6.14,4.02-2.36,.83-4.84,1.3-7.68,1.3h0Zm0-4.61c2.01,0,3.9-.35,5.55-1.06,1.77-.71,3.31-1.65,4.49-2.95,1.3-1.18,2.24-2.72,2.95-4.37,.71-1.77,1.06-3.66,1.06-5.67s-.35-3.78-1.06-5.55c-.71-1.65-1.65-3.19-2.95-4.37-1.18-1.3-2.72-2.24-4.49-2.95-1.65-.71-3.54-1.06-5.55-1.06s-3.9,.35-5.67,1.06c-1.65,.71-3.19,1.65-4.49,2.95-1.3,1.18-2.24,2.72-2.95,4.37-.71,1.77-1.06,3.54-1.06,5.55s.35,3.9,1.06,5.67c.71,1.65,1.65,3.19,2.95,4.37,1.3,1.3,2.83,2.24,4.49,2.95,1.77,.71,3.66,1.06,5.67,1.06h0Zm26.1,4.25l16.42-36.5h5.2l16.54,36.5h-5.43l-14.76-33.54h2.13l-14.76,33.54h-5.31Zm6.97-9.09l1.42-4.25h20.55l1.42,4.25h-23.39Zm41.46,9.09v-36.5h15.35c3.9,0,7.32,.83,10.28,2.36,2.95,1.42,5.2,3.66,6.85,6.38,1.65,2.72,2.48,5.91,2.48,9.45s-.83,6.85-2.48,9.57c-1.65,2.72-3.9,4.84-6.85,6.38-2.95,1.54-6.38,2.36-10.28,2.36h-15.35Zm5.2-4.61h9.8c3.07,0,5.67-.59,7.8-1.65,2.24-1.18,4.02-2.72,5.2-4.84,1.18-2.01,1.77-4.49,1.77-7.2s-.59-5.08-1.77-7.09c-1.18-2.13-2.95-3.66-5.2-4.84-2.13-1.18-4.72-1.65-7.8-1.65h-9.8v27.28Z"/>
      <path class="cls-3" d="M325.51,0h9.8V41.93h-9.8V0Zm65.31,120.59h8.5c11.22,0,17.24-11.22,17.24-24.21s-5.55-22.68-17.24-22.68h-8.5v46.89Zm37.56,28.82h-10.87l-14.65-26.1c-1.06,.12-2.24,.12-3.43,.12h-8.62v25.98h-10.39V70.75h19.02c19.25,0,28.94,13.35,28.94,26.57,0,9.69-5.08,19.25-15.71,23.62l15.71,28.46Zm-97.91-74.76v33.9h18.54v2.95h-18.54v34.96h33.31v2.95h-43.58V70.75h43.58v3.9h-33.31Zm-44.06-3.9h10.39v78.66h-10.39V70.75Zm-23.39,0v78.66h-10.28V75l-22.68,62.83,4.49,11.57h-10.75l-27.4-76.3v76.3h-2.83V70.75h12.05l23.5,63.9,23.62-63.9h10.28Zm-117.28,2.95v33.9h18.54v2.95h-18.54v35.91h33.19v2.95h-43.58V70.75h43.58v2.95h-33.19Zm-68.39,46.89h8.62c11.22,0,17.13-11.22,17.13-24.21s-5.43-22.68-17.13-22.68h-8.62v46.89Zm37.68,28.82h-10.87l-14.65-26.1c-1.06,.12-2.36,.12-3.43,.12h-8.74v25.98h-10.28V70.75h19.02c19.13,0,28.94,13.35,28.94,26.57,0,9.69-5.2,19.25-15.71,23.62l15.71,28.46ZM36.02,96.38c0-12.52-5.43-22.68-17.13-22.68H10.39v46.89h8.5c11.22,0,17.13-11.22,17.13-24.21h0Zm11.93,.94c0,13.11-9.45,26.1-28.94,26.1H10.39v25.98H0V70.75H19.02c19.13,0,28.94,13.35,28.94,26.57h0ZM136.65,7.32h-27.4v8.98h26.1c4.13,0,6.85,.71,8.27,2.13,1.54,1.42,2.24,4.02,2.24,7.8v5.79c0,3.78-.71,6.38-2.24,7.8-1.42,1.42-4.13,2.13-8.27,2.13h-25.87c-4.13,0-6.85-.71-8.39-2.13-1.42-1.42-2.13-4.02-2.13-7.8v-.59h8.62v2.6h29.65v-9.57h-26.1c-4.13,0-6.85-.71-8.27-2.13-1.42-1.42-2.24-4.02-2.24-7.8v-4.61c0-3.78,.83-6.38,2.24-7.8,1.42-1.42,4.13-2.13,8.27-2.13h23.74c3.9,0,6.61,.71,8.15,2.01,1.54,1.3,2.24,3.78,2.24,7.2v.47h-8.62v-2.36h0Zm31.89,34.61L152.48,0h10.04l10.63,28.11L184.25,0h6.85l11.34,28.11L212.6,0h8.74l-16.18,41.93h-6.61l-11.46-29.06-11.69,29.06h-6.85Zm45.71,0L237.99,0h9.33l24.09,41.93h-10.98l-4.96-9.21h-26.57l-4.96,9.21h-9.69Zm18.78-16.77h18.31l-8.98-17.01-9.33,17.01Zm62.36-17.72V41.93h-9.8V7.44h-19.25V0h48.31V7.44h-19.25Z"/>
      <rect class="cls-1" x="137.36" y="182.95" width="153.66" height="6.61"/>
    </g>
  </g>
</svg>