<?xml version="1.0" encoding="UTF-8"?>
<svg id="Layer_2" data-name="Layer 2" xmlns="http://www.w3.org/2000/svg" xmlns:xlink="http://www.w3.org/1999/xlink" viewBox="0 0 1019.05 146.83">
  <defs>
    <style>
      .cls-1 {
        fill: url(#linear-gradient);
      }
    </style>
    <linearGradient id="linear-gradient" x1="0" y1="73.41" x2="1019.05" y2="73.41" gradientUnits="userSpaceOnUse">
      <stop offset="0" stop-color="#c5a037"/>
      <stop offset="1" stop-color="#c2982f"/>
    </linearGradient>
  </defs>
  <g id="Layer_1-2" data-name="Layer 1">
    <path class="cls-1" d="M16.77,57.41c0,2.95,1.54,5.32,4.61,7.21,3.19,1.77,6.85,3.31,11.1,4.61,4.25,1.18,8.62,2.48,12.99,3.78,4.25,1.3,7.91,3.66,10.99,7.21,2.95,3.43,4.49,7.91,4.49,13.47,0,7.09-2.72,12.88-8.27,17.25-5.55,4.25-12.64,6.38-21.26,6.38-7.68,0-14.29-1.65-19.73-4.96-5.43-3.43-9.33-7.91-11.69-13.47l11.81-6.85c1.3,3.9,3.66,6.85,7.21,9.1,3.43,2.13,7.56,3.31,12.4,3.31,4.49,0,8.27-.94,11.22-2.6,2.95-1.77,4.37-4.49,4.37-8.15,0-3.07-1.42-5.55-4.49-7.32-3.07-1.89-6.73-3.43-11.1-4.72-4.25-1.3-8.62-2.6-12.88-3.9-4.37-1.3-8.03-3.54-11.1-6.97-3.07-3.43-4.61-7.68-4.61-12.99,0-6.85,2.72-12.4,8.03-16.89,5.32-4.37,11.93-6.61,19.96-6.61,6.38,0,12.05,1.42,17.13,4.37,4.96,2.83,8.74,6.97,11.22,12.05l-11.46,6.5c-2.83-6.73-8.5-10.16-16.89-10.16-3.9,0-7.21,.94-9.92,2.72-2.83,1.89-4.13,4.37-4.13,7.68h0Zm126.04-21.03h13.7V115.29h-13.7v-13.58c-6.85,10.39-16.77,15.59-29.77,15.59-11.1,0-20.55-4.02-28.35-12.05-7.8-8.03-11.69-17.84-11.69-29.41s3.9-21.38,11.69-29.53c7.8-8.03,17.25-12.05,28.35-12.05,12.99,0,22.92,5.2,29.77,15.71v-13.58Zm-28.11,67.69c8.03,0,14.77-2.72,20.08-8.15,5.32-5.43,8.03-12.05,8.03-20.08s-2.72-14.77-8.03-20.2c-5.32-5.43-12.05-8.15-20.08-8.15s-14.53,2.72-19.84,8.15c-5.43,5.43-8.03,12.17-8.03,20.2s2.6,14.65,8.03,20.08c5.32,5.43,11.93,8.15,19.84,8.15h0ZM265.07,34.26c8.86,0,16.06,2.83,21.5,8.62,5.55,5.79,8.27,13.47,8.27,23.27v49.14h-13.7v-48.67c0-6.02-1.65-10.87-4.84-14.17-3.07-3.43-7.32-5.08-12.64-5.08-5.79,0-10.51,2.01-14.06,5.91-3.54,4.02-5.32,10.04-5.32,18.07v43.94h-13.7v-48.67c0-6.02-1.54-10.87-4.49-14.17-3.07-3.43-7.09-5.08-12.28-5.08-5.79,0-10.63,2.01-14.41,6.02-3.9,4.02-5.79,10.04-5.79,17.95v43.94h-13.7V36.38h13.7v10.51c5.32-8.39,13.23-12.64,23.51-12.64s18.43,4.49,23.27,13.47c5.43-8.98,13.7-13.47,24.69-13.47h0Zm94.85,0c11.1,0,20.55,4.02,28.23,12.05,7.8,8.15,11.69,17.95,11.69,29.53s-3.9,21.38-11.69,29.41c-7.68,8.03-17.13,12.05-28.23,12.05-12.99,0-23.03-5.2-29.77-15.59v45.12h-13.82V36.38h13.82v13.58c6.73-10.51,16.77-15.71,29.77-15.71h0Zm-1.77,69.81c7.91,0,14.53-2.72,19.96-8.15,5.32-5.43,8.03-12.05,8.03-20.08s-2.72-14.77-8.03-20.2c-5.43-5.43-12.05-8.15-19.96-8.15s-14.65,2.72-19.96,8.15c-5.43,5.43-8.03,12.17-8.03,20.2s2.6,14.65,8.03,20.08c5.32,5.43,12.05,8.15,19.96,8.15h0Zm60.6,11.22V0h13.7V115.29h-13.7Zm46.78-33.19c1.42,7.09,4.61,12.52,9.8,16.42,5.08,3.9,11.34,5.91,18.78,5.91,10.51,0,18.07-3.9,22.8-11.58l11.69,6.61c-7.68,11.93-19.25,17.84-34.73,17.84-12.52,0-22.8-3.9-30.59-11.69-7.8-7.91-11.81-17.84-11.81-29.77s3.9-21.85,11.58-29.77c7.68-7.8,17.6-11.81,29.89-11.81,11.58,0,21.03,4.13,28.35,12.28,7.32,8.15,10.99,17.95,10.99,29.41,0,2.01-.24,4.02-.47,6.14h-66.27Zm27.4-34.85c-7.44,0-13.47,2.01-18.31,6.26-4.84,4.13-7.91,9.69-9.1,16.66h52.8c-1.18-7.56-4.13-13.23-8.86-17.13-4.72-3.9-10.28-5.79-16.54-5.79h0Zm136.31-12.99c9.21,0,16.66,2.95,22.21,8.74,5.67,5.91,8.39,13.82,8.39,23.86v48.43h-13.7v-47.72c0-6.38-1.77-11.34-5.2-14.88-3.54-3.54-8.27-5.32-14.41-5.32-6.85,0-12.28,2.13-16.54,6.38-4.25,4.25-6.38,10.87-6.38,19.73v41.82h-13.7V4.72h13.7V47.72c5.67-8.98,14.17-13.47,25.63-13.47h0Zm118.83,71.11c-8.15,7.91-17.95,11.93-29.53,11.93s-21.38-4.02-29.41-11.93c-8.15-8.03-12.17-17.84-12.17-29.53s4.02-21.5,12.17-29.53c8.03-8.03,17.84-12.05,29.41-12.05s21.38,4.02,29.53,12.05c8.03,8.03,12.17,17.84,12.17,29.53s-4.13,21.5-12.17,29.53h0Zm-29.53-1.42c7.91,0,14.53-2.72,19.84-8.03,5.43-5.43,8.03-12.05,8.03-20.08s-2.6-14.77-8.03-20.08c-5.32-5.32-11.93-8.03-19.84-8.03s-14.41,2.72-19.73,8.03c-5.43,5.32-8.03,12.05-8.03,20.08s2.6,14.65,8.03,20.08c5.32,5.32,11.93,8.03,19.73,8.03h0Zm114.82-67.57h13.82V115.29h-13.82v-11.34c-5.55,8.86-14.06,13.35-25.51,13.35-9.33,0-16.66-2.83-22.33-8.74-5.55-5.79-8.39-13.7-8.39-23.74V36.38h13.82v47.6c0,6.5,1.65,11.46,5.2,15,3.43,3.43,8.27,5.2,14.29,5.2,6.85,0,12.4-2.13,16.66-6.38,4.25-4.25,6.26-10.75,6.26-19.61V36.38Zm48.79,21.03c0,2.95,1.54,5.32,4.61,7.21,3.07,1.77,6.85,3.31,11.1,4.61,4.25,1.18,8.62,2.48,12.99,3.78,4.25,1.3,7.91,3.66,10.99,7.21,2.95,3.43,4.49,7.91,4.49,13.47,0,7.09-2.72,12.88-8.27,17.25-5.55,4.25-12.64,6.38-21.26,6.38-7.68,0-14.29-1.65-19.73-4.96-5.43-3.43-9.33-7.91-11.69-13.47l11.81-6.85c1.3,3.9,3.66,6.85,7.09,9.1,3.54,2.13,7.68,3.31,12.52,3.31,4.49,0,8.27-.94,11.22-2.6,2.95-1.77,4.37-4.49,4.37-8.15,0-3.07-1.54-5.55-4.49-7.32-3.07-1.89-6.73-3.43-11.1-4.72-4.25-1.3-8.62-2.6-12.88-3.9-4.37-1.3-8.03-3.54-11.1-6.97-3.07-3.43-4.61-7.68-4.61-12.99,0-6.85,2.72-12.4,8.03-16.89,5.32-4.37,11.93-6.61,19.96-6.61,6.38,0,12.05,1.42,17.13,4.37,4.96,2.83,8.74,6.97,11.22,12.05l-11.46,6.5c-2.84-6.73-8.5-10.16-16.89-10.16-3.9,0-7.21,.94-10.04,2.72-2.72,1.89-4.02,4.37-4.02,7.68h0Zm70.28,24.69c1.42,7.09,4.61,12.52,9.69,16.42,5.2,3.9,11.46,5.91,18.9,5.91,10.39,0,18.07-3.9,22.8-11.58l11.69,6.61c-7.68,11.93-19.37,17.84-34.85,17.84-12.52,0-22.68-3.9-30.48-11.69-7.91-7.91-11.81-17.84-11.81-29.77s3.9-21.85,11.58-29.77c7.68-7.8,17.6-11.81,29.77-11.81s21.03,4.13,28.35,12.28c7.32,8.15,10.99,17.95,10.99,29.41,0,2.01-.12,4.02-.47,6.14h-66.15Zm27.29-34.85c-7.32,0-13.47,2.01-18.31,6.26-4.84,4.13-7.8,9.69-8.98,16.66h52.8c-1.18-7.56-4.13-13.23-8.86-17.13-4.72-3.9-10.28-5.79-16.66-5.79h0Z"/>
  </g>
</svg>