<?xml version="1.0" encoding="UTF-8"?>
<svg id="Layer_2" data-name="Layer 2" xmlns="http://www.w3.org/2000/svg" viewBox="0 0 521.46 153.31">
  <defs>
    <style>
      .cls-1 {
        fill: #fefefe;
      }
    </style>
  </defs>
  <g id="Layer_1-2" data-name="Layer 1">
    <g>
      <path class="cls-1" d="M61.89,58.38c-.35,.24-1.42,.83-1.42,.83,0,.24-.35,.47-.71,.59-.47,.24-.83,.35-.94,.47-.24,.24-2.24,1.54-2.83,1.77-.47,.24-.59,.24-.83,0,0-.35-1.06,.12-3.78,1.77-.94,.71-2.24,1.42-2.6,1.65-.35,.24-1.3,.94-2.24,1.42-.83,.59-2.01,1.42-2.6,1.77s-3.07,2.01-5.67,3.78c-2.48,1.54-4.61,2.95-4.72,2.95v-.24c0-.24,.71-.83,3.43-2.95,.59-.71,1.18-1.06,1.18-1.18-.12-.12-.47,0-.59,.12-1.3,1.06-6.14,4.25-6.85,4.61-.47,.12-.71,.35-.71,.47s-1.06,.83-2.24,1.54c-1.89,1.3-2.95,2.01-6.5,4.49-1.18,.83-1.06,.83-4.13-.59-6.5-2.95-7.68-3.78-9.57-5.91-1.06-1.18-1.18-1.54-1.06-2.36,.47-3.31,6.73-10.04,14.17-15.24,4.37-3.19,10.63-6.61,14.29-8.03,2.36-.94,2.13-.83,4.84-1.42,1.54-.24,2.24-.47,3.07-1.06,.83-.71,.94-.83,.83-1.18-.24-.24-.24-.47,0-.83,.59-.83,.47-2.36-.24-3.07-.47-.35-.94-.71-1.18-.71-.35,0-.47-.24-.35-.47,.24-.83-.59-1.42-2.36-1.65-1.42-.12-1.89,0-2.6,.35-.35,.12-1.42,.47-2.01,.71-1.77,.59-4.37,1.89-7.91,3.78-3.66,2.13-8.15,4.84-8.86,5.43-.12,.12-.94,.71-1.89,1.42-6.61,4.84-12.28,11.22-13.82,15.71-.59,1.77-.71,4.72-.12,6.02,.12,.47,.35,1.18,.24,1.42-.12,1.3,2.24,6.02,3.54,6.73,.35,.12,.47,.47,.59,.71,.12,.59,2.13,2.24,4.72,3.9,1.3,.83,2.48,1.54,2.6,1.77,.24,0,.59,.12,.94,0,.35,0,.59,0,.59,.12,0,.35-3.43,3.07-3.78,3.31-.12,0-.12-.35,0-.71,.35-.94,.12-.83-2.24,1.3-5.08,4.49-5.31,4.72-5.67,6.14-.12,1.3-1.06,2.95-1.65,3.07-.35,.12-.47,.35-.59,.83-.12,.35-.24,.47-.47,.47-.47,0-.83,1.06-1.06,2.83-.24,1.3-.12,1.77,.24,2.48,.24,.59,.47,1.18,.47,1.42-.12,.47,.59,2.36,.94,3.07,.24,.35,1.06,.71,1.89,1.18,1.42,.83,1.65,.83,4.13,.83,3.43-.12,5.79-.71,9.45-2.36,3.19-1.42,5.79-3.07,7.68-4.84,1.42-1.3,2.95-2.83,3.07-2.95,0-.12,.12-.47,.35-.59,.24-.24,.47-.47,.35-.59-.12-.12,.12-.12,.35-.12,.47,0,.71-.24,1.06-1.06,.59-1.18,.71-2.13,.83-4.72,.24-4.25-1.3-7.56-4.61-10.16-.35-.35-.71-.71-.71-.94s2.24-1.89,6.85-4.96c1.3-.94,2.6-1.77,2.72-1.89,.24,0,1.3-.83,2.48-1.65,1.3-.83,3.43-2.24,4.96-3.19,1.42-1.06,3.07-2.01,3.54-2.48,1.3-.71,2.95-1.77,3.66-2.36,.35-.24,1.18-.83,1.77-1.18,1.54-.83,4.96-3.19,5.2-3.31,.24-.12,6.5-4.25,7.09-4.61,.24-.12,.59-.35,.83-.35,1.77-1.18,.12-3.31-2.83-1.3h0ZM26.82,93.22l-.24,.83c-.47,1.54-2.48,4.25-4.96,6.5-1.54,1.54-2.36,2.48-2.48,2.95-.24,.71-.47,.71-1.42,.94-.59,.12-1.3,.35-1.65,.71-.83,.59-4.13,1.65-6.5,2.13-2.6,.35-4.37,.35-5.43,0-.71-.24-.71-.35-.59-1.06,.24-1.06,1.89-3.66,3.43-5.08,2.72-2.6,7.32-6.73,9.92-8.98l2.72-2.36,.94,.35c.35,.12,2.01,.94,3.54,1.77l2.72,1.3Zm85.87-22.44c-.35,0-1.65,1.18-1.89,1.89-.12,.24-.47,.47-.83,.59-.35,0-1.42,.83-2.24,1.65-1.06,.83-1.89,1.54-2.01,1.54,0-.12,.24-.47,.71-.83,.24-.24,.59-.71,.35-1.06-.12-.24-1.06,.35-3.07,2.24-1.77,1.54-2.95,2.48-3.07,2.36-.24-.24-1.18,.35-2.72,1.65-5.67,4.37-9.45,6.85-14.41,8.86-2.13,.94-3.78,1.18-4.96,.94-.71-.12-.71-.35-.71-1.77,0-2.24,.83-5.2,2.95-10.04,1.06-2.36,2.36-5.43,2.83-6.85,.47-1.42,1.42-3.78,2.01-5.2,.59-1.77,1.06-3.19,1.06-4.13,0-1.3-.71-3.07-1.3-3.07-.24,0-.71-.35-1.18-.71-.24-.24-.83-.71-.94-.83-.35-.12-.83-.94-1.3-1.77-.59-.94-1.3-1.77-1.89-2.13-.59-.35-1.18-.83-1.42-.94-.12-.35-1.06-.59-1.89-.83-2.01-.35-3.43,0-4.96,1.3-.59,.47-1.54,1.06-1.89,1.06-.59,.24-1.77,1.18-3.66,3.07-3.19,3.31-5.79,6.14-5.67,6.38,0,.12-.71,1.06-1.65,2.13-.94,1.06-1.65,2.24-1.65,2.36,0,.35-.24,.59-.35,.71-.35,.24-3.31,3.9-4.61,5.79-.59,.94-2.01,2.72-2.83,3.78-.47,.47-1.06,1.42-1.3,2.01-.47,.59-.83,1.18-.94,1.18-.24,0-.35,0-.35,.24s.24,.24,.59,0c.83-.71,.59,0-.71,1.77-1.3,1.42-1.42,1.89-1.3,2.36s0,1.06-.47,1.89c-.24,.71-.59,1.42-.59,1.77s-.12,.35-.24,.12c-.47-.59,.12-3.19,1.06-4.96q.94-1.89,.59-1.89c-.24,0-.71,.83-1.3,1.89-1.65,3.19-1.65,5.67,.12,6.85,.24,.24,.24,.35,.12,.47-.35,.12-.12,1.18,.24,1.18,.12,0,.47,.24,.59,.47,.24,.24,.83,.59,1.42,.83,1.18,.59,1.89,.47,4.61-1.65,2.6-2.01,3.19-2.72,7.44-7.91,2.01-2.24,4.37-5.08,5.55-6.38,1.18-1.3,2.36-2.72,2.6-3.19,.35-.47,.59-.71,.59-.59,0,.47,1.18-.94,1.18-1.54,0-.24,.24-.47,.35-.47,.24,0,1.89-1.18,3.43-2.72,2.36-2.13,3.19-2.72,4.02-2.95,.83,0,1.18-.47,2.01-1.65,.59-.71,1.65-1.65,2.24-2.01l1.06-.59-1.42,2.48c-1.3,2.24-4.02,8.03-5.55,11.93-.47,1.06-.94,2.13-1.06,2.48-.59,.94-1.06,3.78-1.06,5.31,0,2.01,.71,3.78,1.77,4.61,.47,.35,.83,.83,.83,1.06,.12,.71,1.77,2.01,2.95,2.48,2.72,1.06,5.55,.94,9.57-.71,4.25-1.65,11.34-6.38,11.34-7.56,0-.12,.24-.35,.24-.24,.35,.24,5.2-4.02,5.2-4.49,0-.12,1.3-1.65,2.83-3.19,1.65-1.54,2.83-3.07,2.83-3.07,0-.24,.24-.35,.35-.35s.35-.35,.35-.83c.12-.47,.59-1.18,1.18-1.54,.83-.71,.94-1.06,.24-1.06h0Zm-58.58,3.9c.24,0,.24-.12,.24-.35s.12-.35,.35-.24c.24,0,.12,.35-.12,.59-.35,.59-.71,.71-.71,.24,0,0,.12-.24,.24-.24h0Zm12.99-1.06c-.35-.35-.35-.47,0-.71,.24-.24,.35-.12,.47,.24,.24,.59-.12,.94-.47,.47h0Zm5.08-6.5c-.24,.35-.47,.83-.47,1.06,.12,.12-.12,.24-.47,.24s-1.65,1.18-3.9,3.43c-1.89,1.77-3.43,3.43-3.54,3.43s2.72-2.95,5.67-5.79c1.77-1.65,3.07-2.72,2.72-2.36h0Zm3.66-7.44c-1.18,2.36-1.42,2.72-4.13,5.31-2.48,2.24-2.83,2.72-2.48,3.07,.35,.35,.35,.47-.35,.35-.71-.12-1.06,.24-3.66,2.72-1.65,1.77-2.72,2.95-2.6,3.19,.24,.24,.24,.59,0,.83-.12,.24-.12,.35-.12,.24-.12-1.18-1.42,0-6.73,5.91-2.83,3.07-3.43,3.66-3.43,3.19,0-.59,4.84-8.15,5.91-9.09,.12-.35,1.54-2.01,3.07-3.9,1.42-1.65,3.43-4.02,4.49-5.08,3.43-3.43,4.61-4.61,4.61-5.08,0-.24,.12-.59,.24-.71,.35-.12,.35,0,.24,.24-.35,.59,.24,.59,.83,0,.71-.83,4.96-4.02,5.2-3.9,0,.12-.47,1.3-1.06,2.72h0Zm106.18,17.01c-.35,0-.47-.12-.35-.47,.35-.83-.83-1.3-3.9-1.54-2.83-.12-3.66-.12-6.26,.83-1.65,.47-2.95,1.06-2.95,1.18,0,.24,.24,.35,.47,.24,.12-.12,.83-.24,1.3-.35,1.42-.35,.12,.35-2.13,1.18-1.77,.59-1.89,.59-1.06,0,1.65-1.18,0-.71-4.02,1.3-2.13,.94-4.02,2.01-4.13,2.01-.24,.12-.24-.94-.12-2.6,.24-3.07-.24-10.39-1.06-14.53-.83-4.84-2.83-9.8-4.61-12.05-.83-1.18-1.77-2.01-2.01-2.01-.35,0-.71-.47-.94-.94-.12-.71-.35-.71-.71-.47-.24,.12-.83,.35-1.42,.47-.71,0-1.42,.47-2.13,1.42-.83,1.06-1.06,1.18-.71,1.89-1.89,2.36-5.08,7.44-5.08,7.8,0,.47-.47,1.42-2.48,4.72-.83,1.18-1.18,1.54-1.42,1.18q-.35-.35-.12,.12c.12,.35-.47,1.65-1.77,3.43-3.54,4.96-7.2,9.45-8.98,11.34-.94,.94-1.65,1.77-1.65,1.77,0,.35-3.54,4.02-7.09,7.44-3.9,3.9-7.09,6.5-7.68,6.14-.12-.35,1.18-7.09,2.24-10.39,1.65-5.31,5.91-16.42,7.44-19.13,.59-1.06,2.01-3.66,3.07-5.67,1.18-2.13,2.95-5.2,4.02-7.09,1.18-1.77,2.36-4.13,2.72-5.31,.59-1.18,1.18-2.36,1.42-2.72,.47-.71,0-2.24-.59-2.24-.12,0-.12-.24-.12-.59,.24-.35,0-.47-.83-.35-.83,.24-1.18,.12-1.18-.47-.24-.47-.59-.59-2.01-.59s-1.77,.12-2.13,.83l-4.72,6.85c-2.36,3.54-4.72,8.27-4.72,9.21,0,.47-1.3,3.31-2.83,6.26-1.54,2.95-3.07,6.14-3.19,6.85-2.83,7.56-3.54,9.57-4.37,12.4-1.42,5.43-1.77,8.39-1.3,11.1,.71,3.66,2.01,5.67,4.96,7.44,2.13,1.54,4.02,1.54,6.73,.35,2.36-1.18,7.09-5.08,9.92-8.39,.94-1.06,2.83-3.19,4.13-4.72,1.42-1.42,3.31-4.02,4.37-5.55,1.06-1.65,2.48-3.54,3.07-4.25,2.24-2.72,6.14-9.33,6.14-10.16,0-.59,1.06-2.6,2.95-5.55,2.72-4.13,3.43-5.91,3.31-8.86,0-.47,0-.83-.12-1.06,.59,.24,1.06,.47,1.65,.47,1.77,0,2.13,.94,3.31,8.03,.47,3.07,.71,5.79,.71,9.57,0,5.31-.24,7.56-1.42,11.69-.24,1.3-.71,2.72-.83,3.19-.12,.83-.71,1.3-2.01,2.13-4.02,2.36-6.5,3.9-9.21,5.91-1.54,1.18-3.31,2.36-4.02,2.72-.71,.24-2.36,1.54-3.66,2.6-1.18,1.06-3.78,3.43-5.91,5.2-3.54,3.07-8.5,7.91-11.46,11.22-.94,1.18-1.42,1.42-1.3,.94,.24-.35,.24-.71,.12-.71-.24,0-6.14,7.91-7.44,10.04-2.48,4.13-5.43,10.04-5.43,11.22,0,.12,.24,.35,.59,.35,.59,0,.59,.12,0,.47-.83,.59-.71,4.84,.12,7.32,.83,2.24,3.9,5.79,5.43,6.38,2.01,.47,5.43,.12,7.91-.94,4.49-2.01,12.52-8.86,17.6-15.24,3.66-4.25,10.75-14.41,13.7-19.25,3.9-6.61,9.8-19.96,11.22-25.63q.47-1.77,3.9-4.13c6.14-4.02,16.06-8.62,20.2-9.33,1.18-.24,1.42-.35,1.42-1.06,0-.47-.24-.83-.59-.83h0Zm-68.15-11.57c.71-.59,1.18-.83,1.06-.71-1.77,4.49-2.95,7.09-3.07,6.73,0-.12-.24-.35-.35-.35-.24,0-.47,.35-.47,.59q-.12,.59-.35,0c-.35-.71,1.89-4.96,3.19-6.26h0Zm-4.25,7.91c.12-.59,.71-.71,.71-.24,0,.12-.12,.59-.47,.94-.47,.71-.71,.35-.24-.71h0Zm-4.13,20.55c-.59,4.37-1.3,4.49-1.54,0-.24-2.36,1.18-9.69,1.77-9.92,.35-.12,.47-.35,.35-.59-.24-.47,.35-2.6,1.89-6.61,.59-1.42,.94-1.89,1.06-1.54,.24,.47,.59,.35,1.06-.24,.71-.83,1.42-1.06,1.42-.47,0,.24-.47,1.18-.94,2.36-2.72,5.79-4.37,11.57-5.08,17.01h0Zm37.32-30.12c-1.42,2.36-3.07,5.31-3.66,6.38-.59,1.18-2.36,3.43-3.66,5.08-4.96,6.02-4.96,5.55,.12-1.42,2.13-2.83,4.49-6.26,4.96-7.32,1.06-2.01,3.78-6.14,4.49-6.85,.35-.24-.71,1.54-2.24,4.13h0Zm2.36-8.15c-1.06,1.42-1.89,2.72-2.01,2.72-.47,0,1.3-3.31,2.6-5.2,.24,.35,.35,.47,.59,.71-.35,.47-.83,1.06-1.18,1.77h0Zm-20.67,56.34c1.18-1.42,2.01-2.01,2.01-1.42,0,0-.71,.71-1.65,1.54l-1.65,1.54,1.3-1.65Zm-3.31,3.31c.24-.24,.59-.47,.59-.47,.12,0,0,.24-.24,.47-.24,.35-.47,.59-.59,.59,0,0,.12-.24,.24-.59h0Zm-15.12,31.54c-.12-.24,0-1.42,.12-2.72,.47-3.66,6.14-13.58,12.4-21.26,5.31-6.73,17.48-17.83,25.51-23.39,3.54-2.48,3.54-2.6,1.06,2.95-.83,1.89-1.77,3.43-2.01,3.66-.59,.24-3.07,5.31-2.83,5.67,.12,0,.35-.24,.35-.59,.59-1.18,2.72-4.61,2.83-4.49,.24,.24-4.72,8.86-7.8,13.7-1.42,2.24-2.95,4.13-3.19,4.25-.59,.12-1.65,1.18-4.96,5.55-1.77,2.6-7.8,8.86-10.75,11.46-1.42,1.18-3.78,2.95-5.2,3.78-2.72,1.65-5.2,2.24-5.55,1.42h0Zm27.4-42.99c0-.12,.24-.35,.47-.35,0,0,.24,.12,.24,.24,0,0-.24,.24-.24,.35-.24,.12-.47,0-.47-.24h0Zm4.25-2.36c-.24,0-.35-.24-.47-.35-.12-.24-.12-.35,.12-.35,.12,0,.35,.12,.59,.35,0,.12,0,.35-.24,.35h0Zm.83-1.18c.35,0,.59,0,.59-.35s.24-.47,.71-.47q.71,0-.12,.59c-.94,.71-1.18,.83-1.54,.35-.12-.12,0-.24,.35-.12h0Zm4.37-3.07c.47-.12,.59,0,.47,.12,0,.12-.35,.35-.71,.35-.59,0-.59-.35,.24-.47h0Zm1.42-.94c0-.24,.47-.59,1.06-1.06l1.18-.83-.83,1.18c-.83,.94-1.42,1.42-1.42,.71h0Zm-18.31,44.29c-.35,.59-2.36,2.24-2.36,2.13s.71-.83,1.54-1.54c.71-.83,1.18-1.06,.83-.59h0Zm11.69-15.47c-.24,.35-.47,.83-.83,.94-.24,.24-.12-.24,.35-.59,.71-1.18,.94-1.3,.47-.35h0Zm5.67-10.87l-.71,1.42c0,.12-.47,.83-.94,1.42-.47,.59-1.06,1.65-1.42,2.36-.24,.47-2.13,3.54-4.13,6.5-2.13,3.07-3.54,5.67-3.54,5.91,.12,.12,0,.24-.12,.12-.24-.12-1.54,1.3-2.83,3.07-1.42,1.65-3.9,4.25-5.2,5.67-1.54,1.54-2.48,2.72-2.24,2.72s.24,.12,.24,.35c-.12,.24-.35,.35-.71,.12,0-.12-1.3,.83-2.83,2.01-1.42,1.18-3.9,2.95-5.43,3.66-3.19,1.54-5.43,1.89-6.38,.94q-.47-.71,1.77-1.3c1.18-.35,3.07-1.3,4.25-2.13,3.78-2.36,14.88-13.58,16.77-17.01,.35-.47,.47-.47,.83-.12,.47,.35,.71,.24,1.18-.59,.71-1.42,.71-2.01,0-1.42-.59,.47-.71,.47-.12-.35,.12-.47,.47-.71,.59-.47,.24,.71,.59,.47,1.18-.47,.35-.71,.83-1.06,1.06-.94,.12,.12,0,.59-.47,1.06-.47,.35-.71,.83-.47,.83,.59,0,1.54-1.18,1.54-1.77,0-.35-.12-.59-.35-.59s.12-.59,.71-1.54c.59-.83,1.06-1.65,.94-2.13-.12-.24,0-.35,.24-.35s.47-.24,.35-.59c0-.24,.12-.47,.24-.35,.12,.12,.35-.12,.35-.35,0-.35,.12-.59,.24-.59,.47,0,2.13-3.19,2.01-3.54-.12-.12,0-.24,.12-.24,.24,0,.47-.24,.47-.47s.12-.59,.24-.59,.59-.59,.94-1.42,1.42-2.36,2.36-3.43c.94-1.18,2.48-3.54,3.31-5.2,.83-1.77,1.54-2.83,1.54-2.48,0,.83-4.37,10.75-5.55,12.28h0Zm6.5-23.39c-.12,.47-1.77,1.54-9.33,6.73-3.66,2.36-4.13,3.07-3.66,3.66,.59,.47,.47,.83-.24,.83-.24,0-.83,.35-1.3,.71q-.59,.59-.12,0c.71-.94,.12-1.18-.94-.35-1.42,.94-2.72,2.48-2.24,2.48s.47,.12,0,.59c-.12,.24-.71,.35-.94,.24-.47-.12-1.3,.47-2.48,1.42-.94,.94-2.24,2.13-2.83,2.6-2.36,1.77-2.13,1.18,.35-1.06,4.25-4.02,10.04-8.62,14.65-11.93,8.39-5.79,9.33-6.38,9.09-5.91h0Z"/>
      <path class="cls-1" d="M238.82,58.38c-.35,.24-1.54,.83-1.54,.83,0,.24-.24,.47-.71,.59-.35,.24-.71,.35-.83,.47-.24,.24-2.24,1.54-2.83,1.77-.47,.24-.59,.24-.83,0-.12-.35-1.06,.12-3.78,1.77-1.06,.71-2.24,1.42-2.6,1.65-.47,.24-1.3,.94-2.24,1.42-.83,.59-2.01,1.42-2.6,1.77s-3.19,2.01-5.79,3.78c-2.36,1.54-4.49,2.95-4.61,2.95s-.12-.12-.12-.24c0-.24,.71-.83,3.43-2.95,.71-.71,1.18-1.06,1.18-1.18s-.35,0-.59,.12c-1.18,1.06-6.14,4.25-6.85,4.61-.35,.12-.71,.35-.71,.47s-.94,.83-2.13,1.54c-2.01,1.3-3.07,2.01-6.61,4.49-1.06,.83-.94,.83-4.13-.59-6.38-2.95-7.56-3.78-9.45-5.91-1.18-1.18-1.3-1.54-1.18-2.36,.47-3.31,6.73-10.04,14.17-15.24,4.49-3.19,10.63-6.61,14.41-8.03,2.36-.94,2.13-.83,4.84-1.42,1.54-.24,2.24-.47,2.95-1.06,.94-.71,1.06-.83,.83-1.18-.24-.24-.24-.47,.12-.83,.47-.83,.35-2.36-.35-3.07-.35-.35-.83-.71-1.06-.71-.35,0-.47-.24-.35-.47,.12-.83-.59-1.42-2.48-1.65-1.42-.12-1.77,0-2.48,.35-.35,.12-1.42,.47-2.01,.71-1.77,.59-4.37,1.89-7.91,3.78-3.78,2.13-8.15,4.84-8.86,5.43-.12,.12-1.06,.71-1.89,1.42-6.73,4.84-12.28,11.22-13.82,15.71-.59,1.77-.71,4.72-.24,6.02,.24,.47,.47,1.18,.35,1.42-.24,1.3,2.24,6.02,3.54,6.73,.24,.12,.47,.47,.59,.71,.12,.59,2.13,2.24,4.72,3.9,1.3,.83,2.48,1.54,2.6,1.77,.24,0,.59,.12,.94,0,.35,0,.59,0,.59,.12,0,.35-3.43,3.07-3.9,3.31-.12,0-.12-.35,0-.71,.47-.94,.24-.83-2.13,1.3-5.08,4.49-5.43,4.72-5.67,6.14-.24,1.3-1.06,2.95-1.77,3.07-.24,.12-.47,.35-.59,.83-.12,.35-.12,.47-.35,.47-.47,0-.94,1.06-1.06,2.83-.24,1.3-.12,1.77,.24,2.48,.24,.59,.47,1.18,.47,1.42-.12,.47,.59,2.36,.94,3.07,.24,.35,1.06,.71,1.77,1.18,1.54,.83,1.77,.83,4.25,.83,3.43-.12,5.79-.71,9.33-2.36,3.31-1.42,5.91-3.07,7.8-4.84,1.42-1.3,2.95-2.83,2.95-2.95s.24-.47,.47-.59c.12-.24,.35-.47,.24-.59-.12-.12,.12-.12,.47-.12,.47,0,.71-.24,.94-1.06,.59-1.18,.71-2.13,.94-4.72,.24-4.25-1.3-7.56-4.61-10.16-.47-.35-.71-.71-.71-.94s2.24-1.89,6.85-4.96c1.3-.94,2.6-1.77,2.72-1.89,.12,0,1.3-.83,2.48-1.65,1.3-.83,3.43-2.24,4.96-3.19,1.42-1.06,2.95-2.01,3.43-2.48,1.42-.71,2.95-1.77,3.78-2.36,.35-.24,1.06-.83,1.65-1.18,1.54-.83,5.08-3.19,5.31-3.31,.12-.12,6.38-4.25,6.97-4.61,.35-.12,.59-.35,.94-.35,1.65-1.18,.12-3.31-2.83-1.3h0Zm-35.08,34.84l-.35,.83c-.35,1.54-2.36,4.25-4.84,6.5-1.54,1.54-2.48,2.48-2.6,2.95-.12,.71-.35,.71-1.3,.94-.71,.12-1.42,.35-1.65,.71-.83,.59-4.13,1.65-6.5,2.13-2.72,.35-4.37,.35-5.43,0-.71-.24-.71-.35-.59-1.06,.12-1.06,1.89-3.66,3.31-5.08,2.72-2.6,7.44-6.73,10.04-8.98l2.72-2.36,.83,.35c.47,.12,2.01,.94,3.66,1.77l2.72,1.3ZM402.05,22.12c-.12-.12-.24-.47-.24-.83s-.24-.83-.47-1.06c-.35-.59-2.72-1.42-4.96-1.77-1.89-.47-2.36-.47-13.11-.47-8.27,0-12.28,.12-15.71,.35-2.95,.12-10.51,.71-17.01,1.18,1.77-2.72,3.43-4.96,4.37-6.14,1.77-1.89,3.66-4.72,3.78-5.43,.12-.24,.24-.59,.59-.94,1.42-.94,.47-3.9-1.18-4.13-.47-.12-.83-.24-.83-.35,.12-.59-2.48-1.89-3.78-1.89-1.18-.24-2.6,.59-2.83,1.65,0,.35-.59,1.3-1.18,2.24-.94,1.3-7.09,11.1-9.8,15.71l-1.18,.24c-.83,0-2.01,.12-2.83,.12s-3.43,.24-5.91,.35c-2.48,.24-8.27,.71-12.99,1.06-4.61,.35-9.92,.71-11.46,.94-8.74,.71-18.07,1.3-16.3,.94,.35-.12,.94-.24,1.42-.24s.83-.12,.83-.12c0-.12-.47-.24-1.3-.12-.59,.12-4.02,.24-7.44,.47-3.43,.35-6.97,.47-7.68,.59-1.42,.12-1.54,.12-2.01-.35-.94-.94-3.07-1.06-4.49-.24-.83,.47-1.06,.47-3.43,.47q-2.48,0-2.72,.47c-.12,.35-.24,.59-.47,.83-.35,.24-.35,1.77,0,1.77,.24-.12,.35,.12,.35,.35,0,.59,1.06,1.65,1.89,1.65,.83,.24,8.27-.12,11.1-.35,6.73-.83,15.12-1.54,29.29-2.72,17.13-1.54,17.01-1.54,17.24-1.54,.59-.24,15.24-1.54,15.24-1.3,0,0,.35,0,.94-.12-3.54,6.26-6.73,12.28-9.8,17.95-13.23,16.77-36.5,44.53-42.28,49.13-3.43,2.72-6.14,4.37-7.68,4.72l-1.3,.24-.24-1.18c-.12-.71-.12-1.3,.12-1.54,.35-.35,.12-1.06-.35-.83-.24,.12-.35,.12-.35,0,.12-.24,.35-.47,.47-.47,.35,0,.59-.35,.59-1.3,.59-3.31,3.07-9.92,4.72-12.64,.12-.47,.71-1.3,1.06-2.13,.35-.94,.94-2.13,1.3-2.6s1.18-1.89,1.77-2.95c.59-1.18,1.54-2.72,1.89-3.43,.47-.71,1.3-1.89,1.65-2.83,.47-.83,1.06-2.01,1.54-2.72,.35-.59,.59-1.54,.59-2.13v-1.06l-2.01-1.18c-1.65-.94-2.01-1.06-2.83-1.06-.94,.12-1.06,.24-2.36,1.89-1.42,1.89-1.89,2.6-4.61,7.91-.83,1.65-2.01,3.66-2.36,4.37-.35,.71-1.06,2.36-1.77,3.66-.47,1.42-1.18,3.19-1.42,4.02-.47,.94-.94,2.24-1.18,3.07-.12,.71-.59,1.89-.71,2.6-.71,1.89-2.13,9.45-2.01,10.16,0,.12,.59,.94,1.3,1.77,2.24,2.6,5.08,3.9,8.15,3.9h1.42c1.3,0,6.5-2.83,8.74-4.61,2.48-2.13,4.49-3.9,4.37-4.25,0-.12,.24-.35,.35-.47,.59-.24,2.6-2.13,4.72-4.49,2.36-2.83,11.81-14.65,20.2-25.28-4.25,9.69-7.68,19.25-10.75,29.29-2.95,9.92-4.25,15.59-5.2,22.91-1.54,11.1-.94,16.89,1.77,20.55,.94,1.18,1.89,2.13,2.01,2.24,.24,0,.83,.24,1.42,.71,.59,.35,1.42,.94,2.01,1.3,.71,.24,1.65,.71,2.24,.71,1.54,.24,3.78-.47,3.9-1.3,0-.35,.12-.83,.47-1.06,.47-.47-.59-4.61-1.3-4.72-.24,0-1.3,.47-2.24,1.18-1.06,.47-2.01,1.06-2.13,.94-.47,0-1.18-2.72-1.42-4.72-.59-6.85,1.3-19.72,4.13-28.23,.35-1.42,1.3-4.37,2.01-6.73,3.19-10.75,10.75-30.35,13.82-35.67,1.06-1.89,3.54-6.85,5.2-10.63,2.36-5.08,3.43-7.09,10.98-20.08,.71-1.3,1.54-2.6,2.24-3.78,1.65-.24,4.02-.35,6.5-.35,1.54-.12,4.02-.24,5.67-.35,3.9-.24,16.18-.59,18.07-.47,7.56,.12,17.95,.83,18.9,1.18,.35,.12,.24,.35-.94,.47-1.54,.47-4.02,1.3-4.02,1.65,0,.12-3.66,1.18-5.91,1.54-.83,.12-.83,.35-.12,.35,.35,0,.71,.24,.94,.35,.12,.12,.83,.24,2.01,.24,.83,0,1.77,0,1.89,.12,.35,0,5.31-.59,6.38-.83,.35-.24,.71-.24,.94-.24,.47,.12,3.19-1.54,3.43-2.24,.35-.94,.24-1.65-.35-1.89h0Zm-85.39,1.18c-1.54,.24-4.49,.35-6.73,.59-2.24,.12-5.43,.47-7.32,.59-4.96,.35-6.73,.47-6.5,.35,0,0,1.65-.24,3.43-.35,1.77-.12,4.96-.47,6.97-.59,3.54-.35,10.39-.83,12.4-.94,.59-.12,1.3-.12,1.42-.24h.35c0,.35-.47,.35-4.02,.59h0Zm5.08-.24c-.12,0-.24-.12-.24-.24s.12-.12,.24-.12c.24,0,.35,0,.35,.12s-.12,.24-.35,.24h0Zm1.3-.24c-.24,0-.35-.12-.24-.12,.12-.12,.24-.24,.35-.24,.24,0,.35,.12,.35,.24,0,0-.24,.12-.47,.12h0Zm4.13-.35c-.47,.24-.83,.24-.83,0,0-.12,.35-.24,.59-.24q.59,0,.24,.24h0Zm5.2-.24c-1.06,0-2.6,.12-3.31,.12-.71,.12-1.42,.12-1.3,0,.24-.12,6.61-.59,6.61-.47s-.94,.24-2.01,.35h0Zm-26.34,93.78c-1.06,8.03-1.54,10.16-1.42,6.14,0-1.18-.12-2.95-.24-3.9-.35-2.24,1.18-14.17,1.77-14.06,.59,.24,.59,0,.24-.83-.35-.59-.24-1.54,.35-3.78,.59-1.65,1.06-3.07,1.18-3.19,.47-.24,.94-1.42,.59-1.54-.47,0-.35-.59,1.54-7.09,1.18-3.19,2.13-5.67,2.24-5.67,.24,0,1.54-2.95,2.83-6.73,2.95-7.91,7.8-19.13,8.98-21.02,.47-.71,.83-1.42,.83-1.54,0,0,0-.12,.12-.35,1.65-2.01,3.07-3.9,4.37-5.55-1.42,2.83-2.6,5.2-3.19,6.61-2.83,6.5-7.32,17.01-7.32,17.6-.12,.35-1.65,4.37-2.72,7.09-.24,.59-.71,1.42-.71,2.13-.24,.59-.71,2.24-1.3,3.54-.35,1.3-1.18,3.78-1.54,5.2-.47,1.54-1.3,3.66-1.77,4.96-.35,1.3-.94,3.31-1.18,4.37-.24,1.18-.94,3.66-1.54,5.79-.71,2.36-1.42,6.73-2.13,11.81h0Zm1.77,2.01c-.12,.12-.24,1.65-.24,3.19,0,1.77,0,3.19-.12,3.19-.24,.24-.24-1.65-.12-5.31,.12-2.24,.35-2.95,.47-2.36,.24,.59,.24,1.18,0,1.3h0Zm.47-5.91c-.12,.24-.24,.24-.24-.24,.12-.35,.24-.59,.35-.35,.12,0,0,.35-.12,.59h0Zm23.5-65.91c-.12,.83-1.42,3.9-1.65,3.78-.12,0-.47,.47-.59,.94-.24,.47-.47,.83-.59,.83-.24,0-.47,.83-.59,1.89-.12,1.18-.47,2.13-.71,2.24-.71,.47-1.65,2.48-1.54,3.31,.12,.47,0,.47-.12,.35-.35-.24-.47,.47-.83,1.54-.24,1.06-.59,1.89-.83,2.01,0,.24-.35,.83-.47,1.65-.24,.83-.59,1.89-.94,2.36-.71,1.06-1.77,3.9-3.07,7.44-.35,1.54-.94,3.07-1.3,3.43s-.59,1.18-.71,1.77c-.59,3.19-1.18,4.96-1.65,4.72-.12-.12-.47,.12-.71,.47,0,.35,0,.71,.12,.83,.12,.12,0,.71-.24,1.54-2.13,6.14-2.6,7.68-2.72,8.62-.12,.71-.47,1.54-.83,2.13-.59,.94-.59,1.06-.24,1.65,.47,.59,.47,.71-.12,1.06-.59,.24-.83,1.3-1.54,4.37-.94,4.61-1.77,6.73-1.3,3.54,.12-1.06,.47-3.19,.83-4.49,.35-1.42,.94-3.9,1.3-5.67,.47-1.65,1.42-5.08,2.24-7.56s1.77-5.55,2.24-6.97c1.65-5.2,3.78-11.22,6.38-17.24,1.3-3.07,2.01-4.02,2.36-4.02,.47,.12,.47,0,.12-.35-.47-.24-.12-1.06,1.42-4.49,2.83-6.73,6.26-13.11,6.26-11.69h0Zm-.24-5.79c-.12,.12-.35,.12-.47,.12,.12-.24,.24-.35,.24-.47,.47,0,.71,.12,.71,.24,.12,0-.12,.12-.47,.12h0Zm2.24-2.24c0,.12-.12,.24-.24,.24-.47,.59-.59,.59-.47,.24,0-.24,.12-.71,.35-.94,.47-.59,1.42-1.89,2.36-3.19-.59,1.06-1.3,2.36-2.01,3.66h0Zm4.72-8.5c-.59,.83-1.06,1.54-1.18,1.77-.24,.12-.47,.59-.83,1.06-.12,.35-.35,.71-.47,.47,0-.12,.71-1.06,1.54-2.36,.35-.71,.83-1.3,1.06-1.77,.59-.83,.59-.59-.12,.83h0Zm32.13-9.92c-1.06,0-4.37,.35-4.72,.35-.59,.35-1.89,.47-3.19,.12-.83-.12-1.77-.12-2.01-.12-.47,.12-.47,.24,.24,.35q.83,0-.12,.12c-.71,0-1.06-.12-.94-.24,.12-.12-.24-.12-.83-.12-.47,.12-.83,.12-.71,0,.35-.12,.59-.12,3.19-.35,1.18,0,3.19-.12,4.49-.24,3.07-.24,5.08-.24,5.08,0,0,0-.12,.12-.47,.12h0Zm11.1-.35c-.12,0-1.89,.12-3.9,.24h-5.2c-1.06,0-1.06-.12-.35-.24,.83-.12,9.57-.12,9.45,0h0Zm4.13,.35c-.24,0-.47,0-.47-.12,0,0-.59-.12-1.3-.12s-1.3,0-1.42-.12c-.12-.12,.71-.12,1.77-.12s1.77,0,1.54,.12q-.24,.12,0,.24t-.12,.12h0Zm12.17,.94c-1.06-.24-4.84-.71-6.38-.71-.71,0-1.42-.12-1.54-.12-.12-.24-.83-.24-1.54-.24-1.54,.12-2.01,0-.71-.24,2.36-.35,8.15,.24,10.75,1.18,1.06,.35,.47,.35-.59,.12h0Zm-107.72,27.05s.35,.47,.83,.94c.59,.71,.83,.71,1.65,.71,.59,0,1.06,.12,1.18,.24,.59,.47,1.65-.71,3.43-4.13,1.42-2.48,2.95-4.61,4.96-7.09,.71-.94,1.42-2.13,1.42-2.48,.12-.35,.24-.94,.24-1.06,.24-.35,.24-.71-.24-1.65-.94-1.89-1.42-1.77-4.02,.35-2.48,2.24-7.56,8.27-9.21,10.98-1.18,2.01-1.18,2.24-.71,2.48,.12,.24,.47,.47,.47,.71h0Zm146.69,23.03c-.35,0-1.65,1.18-1.89,1.89-.12,.24-.47,.47-.83,.59-.35,0-1.3,.83-2.24,1.65-1.06,.83-1.77,1.54-1.89,1.54,0-.12,.12-.47,.59-.83,.24-.24,.59-.71,.35-1.06-.12-.24-.94,.35-2.95,2.24-1.89,1.54-3.07,2.48-3.19,2.36-.12-.24-1.18,.35-2.72,1.65-5.55,4.37-9.45,6.85-14.29,8.86-2.24,.94-3.9,1.18-5.08,.94-.71-.12-.71-.35-.71-1.77,0-2.24,.94-5.2,3.07-10.04,.94-2.36,2.24-5.43,2.72-6.85,.59-1.42,1.42-3.78,2.01-5.2,.71-1.77,1.06-3.19,1.06-4.13,0-1.3-.71-3.07-1.3-3.07-.24,0-.71-.35-1.06-.71-.35-.24-.83-.71-1.06-.83-.35-.12-.83-.94-1.3-1.77-.47-.94-1.18-1.77-1.77-2.13-.59-.35-1.3-.83-1.42-.94-.24-.35-1.18-.59-1.89-.83-2.01-.35-3.43,0-5.08,1.3-.59,.47-1.54,1.06-1.89,1.06-.47,.24-1.77,1.18-3.66,3.07-3.19,3.31-5.67,6.14-5.67,6.38,0,.12-.59,1.06-1.65,2.13-.94,1.06-1.65,2.24-1.65,2.36,0,.35-.12,.59-.35,.71-.35,.24-3.19,3.9-4.49,5.79-.59,.94-2.01,2.72-2.95,3.78-.35,.47-1.06,1.42-1.3,2.01-.35,.59-.83,1.18-.94,1.18s-.24,0-.24,.24,.12,.24,.47,0c.94-.71,.59,0-.71,1.77-1.18,1.42-1.42,1.89-1.18,2.36,.12,.47,0,1.06-.47,1.89-.35,.71-.71,1.42-.71,1.77s0,.35-.24,.12c-.47-.59,.24-3.19,1.06-4.96q1.06-1.89,.59-1.89c-.12,0-.71,.83-1.3,1.89-1.65,3.19-1.54,5.67,.12,6.85,.35,.24,.35,.35,.12,.47-.35,.12-.12,1.18,.35,1.18,0,0,.35,.24,.59,.47,.12,.24,.71,.59,1.42,.83,1.18,.59,1.89,.47,4.49-1.65,2.6-2.01,3.19-2.72,7.56-7.91,1.89-2.24,4.25-5.08,5.55-6.38,1.06-1.3,2.24-2.72,2.6-3.19,.24-.47,.59-.71,.59-.59,0,.47,1.06-.94,1.06-1.54,0-.24,.24-.47,.47-.47,.12,0,1.77-1.18,3.31-2.72,2.36-2.13,3.31-2.72,4.13-2.95,.71,0,1.18-.47,2.01-1.65,.59-.71,1.54-1.65,2.13-2.01l1.06-.59-1.42,2.48c-1.3,2.24-4.02,8.03-5.55,11.93-.35,1.06-.94,2.13-.94,2.48-.71,.94-1.18,3.78-1.18,5.31,0,2.01,.71,3.78,1.89,4.61,.35,.35,.71,.83,.71,1.06,.12,.71,1.77,2.01,2.95,2.48,2.72,1.06,5.55,.94,9.69-.71s11.22-6.38,11.22-7.56c0-.12,.24-.35,.35-.24,.24,.24,5.08-4.02,5.08-4.49,0-.12,1.3-1.65,2.95-3.19,1.54-1.54,2.83-3.07,2.83-3.07,0-.24,.12-.35,.24-.35s.47-.35,.47-.83,.59-1.18,1.06-1.54c.94-.71,.94-1.06,.24-1.06h0Zm-58.58,3.9c.24,0,.35-.12,.35-.35s.12-.35,.24-.24c.24,0,.12,.35-.12,.59-.35,.59-.71,.71-.71,.24,0,0,.12-.24,.24-.24h0Zm12.99-1.06c-.35-.35-.35-.47,0-.71,.35-.24,.35-.12,.47,.24,.24,.59-.12,.94-.47,.47h0Zm5.08-6.5c-.24,.35-.47,.83-.47,1.06,.12,.12-.12,.24-.35,.24-.47,0-1.77,1.18-3.9,3.43-2.01,1.77-3.43,3.43-3.54,3.43-.24,0,2.72-2.95,5.55-5.79,1.89-1.65,3.07-2.72,2.72-2.36h0Zm3.66-7.44c-1.06,2.36-1.42,2.72-4.13,5.31-2.48,2.24-2.83,2.72-2.36,3.07,.24,.35,.24,.47-.47,.35-.71-.12-1.06,.24-3.54,2.72-1.77,1.77-2.72,2.95-2.6,3.19s.12,.59,0,.83c-.12,.24-.24,.35-.24,.24-.12-1.18-1.3,0-6.61,5.91-2.83,3.07-3.43,3.66-3.43,3.19,0-.59,4.84-8.15,5.79-9.09,.24-.35,1.65-2.01,3.07-3.9,1.42-1.65,3.43-4.02,4.61-5.08,3.43-3.43,4.49-4.61,4.49-5.08,0-.24,.12-.59,.35-.71,.24-.12,.24,0,.12,.24-.24,.59,.24,.59,.83,0,.71-.83,5.08-4.02,5.2-3.9,0,.12-.47,1.3-1.06,2.72h0Z"/>
      <path class="cls-1" d="M518.63,1.45c-.35,0-1.18-.47-1.65-.83-.59-.47-1.18-.71-1.54-.59-.47,.12-2.13,2.24-2.83,3.9-.12,.35-1.18,2.01-2.36,3.66-5.2,7.44-9.45,14.06-9.45,14.76-.12,.71-1.77,3.31-6.02,9.69-2.24,3.07-5.67,7.91-7.56,10.63-2.01,2.95-5.08,7.2-6.85,9.69-1.77,2.6-4.72,6.38-6.26,8.62-1.65,2.24-3.9,5.08-4.84,6.38-1.06,1.3-2.83,3.54-3.9,4.84-7.09,9.09-19.25,22.32-20.43,22.32-.12,0-1.77,1.18-3.31,2.48-3.43,2.83-6.73,4.96-7.91,5.2q-.71,.24-.94-.94c-.24-1.42,.24-4.25,1.65-10.63,1.3-5.79,1.77-7.44,2.48-9.69,.47-1.06,.71-2.13,.94-2.6,.12-.47,.59-1.54,1.06-2.48,.71-1.3,.94-1.77,1.77-2.01,1.54-.47,8.98-5.67,11.69-8.5,4.61-4.37,10.51-11.46,14.06-16.65,3.07-4.49,4.13-6.14,7.32-12.4,3.66-7.09,6.14-12.4,7.8-17.13,1.18-3.19,1.3-4.02,1.3-5.91,0-3.31-.47-4.02-2.95-4.84-.47-.12-.71-.24-.71-.47,0-.47-1.65-1.06-2.48-.94-.35,0-.59,.24-.59,.35s-.83,.94-2.01,1.77c-6.02,4.96-10.98,10.04-15.47,15.71-4.72,6.14-5.08,6.73-8.15,11.57-1.65,2.72-4.13,6.61-5.55,8.86-1.42,2.36-3.07,5.08-3.54,6.26-2.01,3.9-6.5,13.46-7.8,16.65-.71,1.65-1.42,3.66-1.77,4.37-1.42,3.54-3.78,13.35-4.49,18.54-.59,2.95-.24,8.03,.35,10.28,.59,2.01,3.43,5.91,4.72,6.26,1.42,.59,4.13,.47,5.79-.24,3.78-1.42,14.41-10.87,15.83-14.17,.35-.71,1.77-2.6,3.07-4.25,1.42-1.54,2.95-3.54,3.54-4.25,.59-.83,1.42-2.01,1.89-2.6,.59-.59,1.18-1.54,1.42-1.89,1.3-1.65,2.83-3.54,4.02-4.84,.59-.83,1.54-2.01,2.13-2.72,.59-.71,1.18-1.54,1.42-1.89,1.42-1.77,6.02-8.15,9.33-12.87,1.42-1.89,2.72-3.66,2.83-3.9,.24-.35-.35,1.3-1.54,3.43-3.19,6.61-8.74,19.02-10.16,22.44-.83,1.89-1.89,4.37-2.36,5.55-2.24,5.2-2.72,6.5-4.02,10.39-2.01,5.91-3.66,11.46-4.61,15l-1.42,6.61c-.71,2.95-.83,7.68-.24,9.33,.24,.59,.59,1.3,.94,1.42,.24,.24,.94,.71,1.3,1.18,.35,.35,.94,.71,.94,.71,.12,0,.59,.12,.94,.47,.47,.47,.94,.47,1.42,.47,1.06-.35,1.54-.83,1.77-2.48,.12-.71,.35-1.77,.35-2.13,.24-.94,.24-1.06-.94-1.65-1.06-.47-1.06-.59-.94-1.77,.12-1.65,.83-5.2,1.42-7.2l6.02-19.13c4.13-11.34,12.17-29.65,17.36-39.92,1.06-2.13,2.48-4.84,3.07-6.02,2.36-5.08,10.63-20.43,12.52-23.27,.83-1.06,1.65-2.48,1.89-3.07,.47-.71,.94-1.65,1.18-2.13,1.54-2.24,2.48-3.43,2.95-4.13,.35-.35,1.42-1.89,2.36-3.54,1.18-1.65,3.31-4.37,4.72-6.02,1.54-1.65,2.83-3.31,2.83-3.66,0-1.06-1.77-3.31-2.83-3.43h0Zm-75,63.07c.47-.94,1.3-2.83,2.01-4.25,1.65-4.02,10.87-20.08,14.06-24.57,.83-1.42,1.89-2.83,2.13-3.31,.71-1.42,6.02-8.03,9.33-11.57,3.66-4.13,7.68-7.8,7.91-7.44,.35,.35-.83,3.9-2.48,8.03-1.89,4.49-6.38,13.11-7.32,14.41-.47,.47-1.18,1.42-1.54,2.13-2.6,5.08-6.85,11.1-11.1,15.47-6.61,7.09-8.98,9.33-11.1,10.87-1.42,1.06-2.6,1.77-2.6,1.77-.12,0,.12-.71,.71-1.54h0Zm39.33-13.46c-.12,.47-.71,1.65-1.42,2.6-.71,.83-1.89,2.48-2.36,3.43-.59,.94-1.89,2.72-2.95,3.9-2.36,2.95-4.25,5.43-6.02,7.8-.83,1.06-2.36,3.19-3.54,4.72-2.72,3.54-7.09,8.5-7.09,8.15,0-.24,.94-1.65,2.24-2.95,3.66-4.61,12.87-16.89,19.37-25.87,.94-1.42,1.77-2.6,1.89-2.6,0,0,0,.35-.12,.83h0Zm-22.09,68.62c-.12,.24-.24,.12-.24-.24s.12-.47,.24-.35v.59h0Zm31.06-78.43c.35-.35,.24-.24-.12,.71-.35,.71-.83,1.42-.83,1.54-.47,.24,.24-1.3,.94-2.24h0Zm-5.31,4.13c0,.35-.35,1.3-1.42,2.95-.71,1.06-1.06,1.54-1.06,1.06,0-.35,2.36-4.25,2.48-4.02h0Zm-25.39,72.64c-.12,.71-.24,.71-.24,.24,0-.35,.12-1.06,.24-1.54,.12-.59,.24-.59,.24-.12,0,.35-.12,.94-.24,1.42h0Zm1.06-5.91c2.6-11.1,7.09-23.27,14.29-39.33,4.25-9.8,12.17-25.87,13.7-28.46,1.18-1.65,0,.83-3.43,7.68-2.01,4.02-4.25,8.86-5.08,10.63-1.42,3.19-2.24,4.96-6.14,13.35-1.65,3.66-2.95,6.5-3.78,8.86-.24,.71-.71,2.01-1.18,2.83-.24,.83-.59,1.77-.59,2.01,0,.12-.47,1.42-1.06,2.72-1.3,3.19-2.36,5.91-4.37,12.76-.94,3.31-2.01,6.97-2.36,8.39-.94,3.19-1.06,2.24,0-1.42h0Zm.94,8.62c-.35,1.18-.59,2.83-.59,3.54,0,.83-.12,1.65-.24,1.65-.24,.24-.35-.12-.35-.83,0-1.54,.94-6.5,1.3-7.32l.47-.83v.83c0,.35-.35,1.77-.59,2.95h0Zm38.74-91.65c-.59,1.18-1.54,2.95-2.01,3.9-.47,.94-1.42,2.72-2.13,3.9-.71,1.06-1.18,2.24-1.06,2.36,.12,0-.35,.83-.71,1.65-1.18,2.48-3.19,6.26-3.78,7.09-.94,1.89-2.72,6.26-2.6,6.5,.12,0,0,0-.12,0-.35-.24-.47-.24-.24,.24,.12,.35,.12,.59,0,.35-.12-.12-.35,.12-.71,.59-.83,.94-6.5,13.58-6.5,14.06v.12c0-.24-.35,0-.59,.47-.12,.59-.47,1.18-.71,1.42,0,.24-1.18,2.6-2.24,5.2-1.18,2.6-2.13,4.84-2.24,4.84-.24,0-.24,.35-.24,.47,0,.35-.47,1.54-1.06,2.83-.47,1.18-.94,2.36-.94,2.48s-.24,.71-.47,1.06c-.35,.71-2.13,5.43-3.07,8.39-.12,.47-.47,.94-.59,1.06-.24,.24-.35,.59-.35,1.06,0,.35-.35,1.65-.83,2.6-.47,1.3-.71,2.36-.59,2.95,.12,.47,.12,.59-.12,.35-.12-.35-.24-.35-.35,.12-.47,1.42-2.72,8.5-3.19,9.57-.59,1.18-.94,1.54-.59,.47,.12-.47,.24-1.06,.24-1.3,.24-1.18,.83-3.78,1.77-6.5,.35-1.42,.71-2.83,.83-3.19,.12-.71,5.43-15.24,6.5-17.72,.47-.94,.83-2.01,.83-2.01,0-.24,3.31-8.15,3.66-8.74,.24-.12,.35-.83,.59-1.18,.47-.94,.47-1.18,3.78-8.03,1.42-3.07,2.95-6.5,3.54-7.44,.59-1.18,.94-2.13,.83-2.36-.12-.12-.12-.24,0-.24,.35,0,3.07-5.32,3.31-6.02,.12-.12,.35-.59,.59-1.06,.24-.24,.59-.83,.59-1.3,.12-.47,.35-.94,.47-1.06,.12-.12,.83-1.3,1.42-2.72,.71-1.3,2.24-4.25,3.54-6.5,1.3-2.24,2.36-4.37,2.6-4.61,1.3-2.6,4.02-6.73,4.13-6.73,0,.12-.47,1.3-1.18,2.6h0Z"/>
    </g>
  </g>
</svg>