<?xml version="1.0" encoding="UTF-8"?>
<svg id="Layer_2" data-name="Layer 2" xmlns="http://www.w3.org/2000/svg" viewBox="0 0 199.84 136.94">
  <defs>
    <style>
      .cls-1 {
        fill: #fefefe;
      }
    </style>
  </defs>
  <g id="Layer_1-2" data-name="Layer 1">
    <g>
      <path class="cls-1" d="M87.17,22.01c1.65-.12,4.02-.24,6.5-.35,1.54-.12,4.02-.24,5.67-.24,3.9-.35,16.18-.71,18.07-.59,7.68,.12,18.07,.94,18.9,1.18,.35,.24,.24,.35-.83,.71-1.65,.24-4.13,1.18-4.13,1.42s-3.66,1.18-5.91,1.54c-.83,.12-.83,.47-.12,.47,.35,0,.71,.12,.94,.24s.94,.24,2.01,.24c.94,0,1.77,0,1.89,.12,.35,.12,5.31-.59,6.38-.83,.35-.24,.83-.24,.94-.24,.59,.12,3.19-1.54,3.43-2.13,.35-.94,.24-1.65-.24-2.01-.24-.12-.35-.47-.35-.83s-.24-.83-.24-.94c-.59-.59-2.95-1.54-5.08-1.89-2.01-.35-2.36-.35-13.23-.35-8.27,0-12.17,.12-15.59,.24-3.07,.24-10.63,.71-17.13,1.18,1.77-2.6,3.43-4.84,4.37-6.02,1.77-2.01,3.78-4.84,3.78-5.55,.12-.24,.35-.59,.71-.83,1.3-.94,.35-4.02-1.18-4.25-.59,0-.94-.12-.83-.35,0-.47-2.48-1.77-3.9-1.89-1.18-.24-2.6,.71-2.72,1.77,0,.24-.71,1.3-1.3,2.13-.94,1.3-6.97,11.1-9.8,15.83l-1.18,.12c-.83,0-2.01,.12-2.83,.24-.83,0-3.43,.12-5.79,.47-2.48,.12-8.27,.47-12.99,.83-4.72,.47-10.04,.83-11.57,.94-8.62,.71-18.07,1.3-16.3,.94,.35-.12,.94-.24,1.54-.24,.35,0,.71,0,.71-.12s-.47-.12-1.18-.12c-.71,.12-4.13,.24-7.56,.59-3.43,.24-6.85,.47-7.68,.59-1.3,0-1.54,0-1.89-.47-1.06-.83-3.19-.94-4.61-.24-.83,.59-.94,.59-3.43,.59s-2.48,0-2.72,.47c0,.24-.24,.47-.35,.71-.47,.24-.47,1.89,0,1.89,.24-.12,.35,0,.35,.35,0,.47,1.06,1.54,1.77,1.77,.83,0,8.39-.35,11.1-.59,6.73-.71,15.12-1.54,29.29-2.72,17.13-1.42,17.01-1.42,17.24-1.54,.59-.24,15.35-1.54,15.35-1.3h.94c-13.7,23.62-22.44,43.46-29.06,65.55-3.07,9.8-4.37,15.47-5.31,22.91-1.42,11.1-.83,16.77,1.89,20.43,.83,1.3,1.77,2.13,2.01,2.24,.12,0,.71,.35,1.42,.83,.47,.35,1.42,.83,2.01,1.18,.71,.35,1.65,.71,2.24,.83,1.54,.12,3.66-.59,3.78-1.42,0-.24,.24-.71,.47-1.06,.47-.35-.59-4.61-1.3-4.61-.24-.12-1.18,.35-2.24,1.06-.94,.59-2.01,1.06-2.13,1.06-.47-.12-1.18-2.72-1.42-4.72-.47-6.97,1.3-19.84,4.13-28.35,.47-1.3,1.3-4.37,2.01-6.61,3.31-10.87,10.75-30.47,13.82-35.67,1.06-2.01,3.66-6.97,5.2-10.63,2.36-5.08,3.43-7.2,10.98-20.2,.71-1.3,1.54-2.6,2.24-3.78h0Zm39.33-3.19c2.24-.35,8.15,.35,10.75,1.3,.94,.24,.35,.35-.71,0-1.06-.24-4.84-.59-6.38-.59-.71,0-1.42-.12-1.54-.24-.12,0-.71-.12-1.54,0-1.54,0-1.89-.24-.59-.47h0Zm-3.43,0c.94,0,1.65,0,1.54,0q-.35,.12,0,.35t-.12,.12c-.24,0-.59,0-.59-.12s-.47-.24-1.18-.24c-.83,0-1.42,0-1.54-.12-.12,0,.71,0,1.89,0h0Zm-12.17,0c.71,0,9.57-.12,9.33,0-.12,0-1.89,.12-3.9,.24-2.01,0-3.78,.12-4.02,.12,0,.12-.71,0-1.18,0-.94-.12-.94-.24-.24-.35h0Zm-14.06,.94c.35-.24,.59-.24,3.31-.35,1.06-.12,3.07-.12,4.37-.24,3.07-.35,5.08-.35,5.08,0,0,.12-.12,.12-.47,.12-.94,0-4.37,.24-4.72,.35-.59,.24-1.77,.35-3.19,.12-.83-.12-1.77-.12-1.89-.12-.59,.12-.47,.12,.24,.24s.71,.12-.24,.12c-.59,0-1.06-.12-.94-.24,.12,0-.24,0-.71,0s-.94,0-.83,0h0Zm-41.69,2.95c-1.54,.24-4.37,.35-6.73,.59-2.13,.24-5.43,.47-7.2,.71-5.08,.35-6.73,.35-6.61,.35,.12-.12,1.65-.24,3.43-.35,1.89-.24,4.96-.47,6.97-.71,3.66-.35,10.51-.83,12.52-.94,.59,0,1.18-.12,1.42-.12,0-.12,.24-.12,.24,0,0,.24-.47,.35-4.02,.47h0Zm5.08-.24s-.12-.12-.12-.24l.12-.12c.24,0,.35,.12,.35,.12,0,.12-.12,.24-.35,.24h0Zm1.3-.24c-.24,0-.35,0-.24-.12,.12-.12,.24-.24,.47-.24,.12,0,.24,.12,.24,.24s-.24,.12-.47,.12h0Zm4.13-.35c-.47,.24-.71,.24-.71,0,0,0,.24-.12,.59-.12,.47,0,.59,.12,.12,.12h0Zm5.31-.24c-1.06,.12-2.6,.24-3.31,.24h-1.42c.24-.12,6.61-.59,6.61-.47,0,0-.83,.12-1.89,.24h0Zm-24.69,95.79c-.12,.24-.24,1.65-.24,3.31,.12,1.65,0,3.07,0,3.07-.35,.35-.35-1.54-.12-5.08,.12-2.48,.24-3.19,.35-2.48,.24,.47,.24,1.06,0,1.18h0Zm.47-5.91c-.12,.35-.12,.24-.12-.12,0-.47,.12-.71,.24-.47,.12,.12,0,.35-.12,.59h0Zm23.5-65.91c-.12,.94-1.3,3.9-1.65,3.9-.12-.12-.35,.35-.47,.83-.24,.47-.47,.83-.71,.83s-.47,.83-.47,2.01c-.24,1.06-.59,2.01-.83,2.24-.71,.35-1.65,2.48-1.54,3.31,.12,.35,.12,.47-.12,.24-.24-.12-.47,.47-.83,1.54-.12,1.06-.59,2.01-.71,2.13-.12,.12-.47,.83-.59,1.65s-.59,1.77-.83,2.24c-.71,1.18-1.89,3.9-3.07,7.56-.47,1.42-1.06,2.95-1.42,3.43-.24,.35-.59,1.18-.71,1.65-.59,3.31-1.18,5.08-1.54,4.72-.24,0-.59,.12-.71,.47-.12,.35-.12,.83,0,.83,.12,.12,0,.83-.24,1.65-2.01,6.02-2.6,7.68-2.72,8.5-.12,.71-.35,1.65-.83,2.13-.59,.94-.59,1.18-.24,1.65,.47,.59,.47,.71-.12,1.06-.59,.24-.83,1.3-1.54,4.49-.94,4.72-1.77,6.73-1.3,3.54,.12-1.18,.47-3.19,.94-4.61,.24-1.42,.83-3.9,1.3-5.67,.35-1.65,1.42-5.08,2.13-7.44,.83-2.48,1.89-5.67,2.36-7.09,1.54-5.2,3.66-11.22,6.38-17.24,1.3-2.95,1.89-4.02,2.24-4.02,.47,.12,.47,0,.12-.35-.35-.24-.12-.94,1.42-4.49,2.95-6.61,6.38-12.99,6.26-11.69h0Zm6.02-15.12c-2.72,4.72-9.69,18.31-11.57,22.44-2.83,6.5-7.2,17.01-7.32,17.6-.12,.35-1.65,4.37-2.72,7.09-.24,.59-.59,1.54-.71,2.13-.24,.59-.71,2.24-1.18,3.66-.47,1.3-1.3,3.66-1.65,5.08-.47,1.54-1.18,3.78-1.77,5.08-.35,1.3-.94,3.19-1.18,4.37-.24,1.06-.83,3.66-1.54,5.79-.59,2.36-1.3,6.73-2.01,11.69-1.18,8.03-1.65,10.16-1.54,6.26,0-1.3-.12-2.95-.24-3.9-.24-2.36,1.18-14.29,1.89-14.06,.47,.12,.59,0,.12-.94-.24-.59-.12-1.54,.47-3.66,.47-1.65,.94-3.19,1.18-3.31,.35-.24,.83-1.3,.47-1.3-.47-.12-.35-.83,1.77-7.2,.94-3.31,1.89-5.79,2.01-5.79,.24,.12,1.54-2.95,2.83-6.61,2.95-8.03,7.8-19.25,8.98-21.14,.47-.71,.94-1.3,.94-1.54s.47-1.18,1.18-2.36c2.24-4.13,3.54-6.38,3.54-6.97,0-.24,.12-.47,.12-.47,.24,0,.47-.24,.47-.71,.24-1.18,5.55-10.63,6.61-11.57,.47-.47,1.18-1.18,1.54-1.65,.94-1.18,.83-.71-.71,2.01h0Zm.12,55.28c-.12,.24-.35,.47-.24,.71,0,.24-.12,.35-.35,.35-.12,0-.24,.24-.24,.47,.12,.71,.71,.35,1.06-.59,.35-1.18,.35-1.42-.24-.94h0Zm15.71-27.4c-.12,0-.24,.47-.47,.94-.24,.35-.35,.71-.24,.71s.35-.35,.47-.83c.24-.35,.35-.83,.24-.83h0Zm-11.46,18.43c.35-.24,.35-.59,.24-1.06-.47-.83-.59-.71-.59,.59,0,.83,0,.95,.35,.47h0Zm-6.5,15.35l-.59,.59c-.24,.35-.47,1.06-.47,1.65q0,.94,.35,.47c.12-.35,.24-.71,.12-.83,0-.24,0-.35,.24-.47,.35-.12,.47-.47,.47-.83l-.12-.59Zm58.23-6.26c-.47-.24-.71-2.36-.47-2.95,.12-.35,.12-.47-.12-.59-.12-.12-1.06,.71-2.13,1.89-4.72,5.08-7.2,6.73-10.75,7.32-1.3,.12-2.36,.12-2.6,0-.12,0-.71-1.18-.94-2.36-.94-3.66-.83-5.79,1.18-16.89,.59-4.02,.83-8.5,.24-9.92-.24-.59-.47-1.42-.59-1.89,0-.59-.24-.83-.71-1.06-.71-.24-1.77-1.06-1.77-1.42-.12-1.06-4.61-1.06-6.61,0-1.18,.71-3.9,2.95-4.84,4.13-1.65,2.36-2.24,2.95-2.6,2.83-.24-.12-.35,.12-.35,.59,0,.24-.24,.47-.47,.47s-.24,0-.24,.24c.35,.24-1.77,2.83-2.01,2.72-.24-.12-.47,0-.71,0-.12,.24-.12,.35,0,.35,.24,.12-.12,.94-.94,2.01-.83,1.06-1.42,1.54-1.54,1.42-.12-.24-.24-.12-.24,.12,.12,.24-.35,1.06-.94,1.65-1.06,1.3-1.77,2.13-3.31,4.25-.47,.83-1.18,1.3-1.3,1.18-.12,0-.24,0,0,.24,.12,.12-.47,1.06-1.3,2.36-.83,1.06-1.65,2.36-1.89,2.83-.24,.47-.71,1.18-1.18,1.65-.24,.35-.83,1.06-.94,1.3-.35,.24-.59,.59-.47,.71,0,.35-1.06,1.77-1.3,1.65-.24-.12-.59,.47-.94,1.18-.94,1.77-.94,1.42,0-.83,.47-1.06,1.54-3.78,2.48-6.14,.94-2.36,2.36-5.79,3.19-7.68,.83-1.89,2.48-5.55,3.66-8.15,1.06-2.48,2.83-6.02,3.66-7.8,.94-1.65,1.65-3.19,1.65-3.43-.12-.12,.24-.94,.71-1.65,.35-.83,.94-2.01,1.3-2.6,.35-.83,1.18-2.36,1.89-3.66,.83-1.3,1.54-2.6,1.65-2.72,0-.35,.71-1.42,1.42-2.6,.71-1.18,1.54-2.72,1.89-3.31,.24-.83,.47-1.3,.71-1.3,.12-.12,.24-.24,.24-.35s.24-.71,.59-1.18c.47-.47,.83-1.06,.71-1.42,0-.24,.12-.47,.24-.47,.24,0,.35-.24,.35-.35-.12-.47,1.65-3.31,2.01-3.07,.12,0,.24-.35,.35-.83,.12-.35,.35-.83,.47-.83s.35-.24,.24-.47c0-.35,.35-1.18,.94-1.89,.47-.71,1.42-2.13,2.01-3.07,.47-.94,1.06-1.77,1.18-1.77,.24,0,1.65-2.01,3.31-4.25,4.25-6.26,6.14-8.5,7.91-10.28,2.01-2.01,2.01-2.13,2.36-3.66,.24-.94,.24-1.18-.35-1.3-.12-.24-.47-.47-.47-.71-.24-1.42-2.95-2.01-4.72-.94-2.13,1.3-2.6,1.77-2.6,2.01s-1.77,2.36-4.02,4.84c-3.19,3.66-3.78,4.49-3.19,4.37,.47-.12,.71-.12,.59,.12-.47,.71-1.18,2.01-1.77,2.6-.24,.47-.83,1.42-1.06,2.13-.35,.83-1.54,2.83-2.48,4.72-3.43,5.55-12.28,20.91-13.23,22.8-.47,.94-1.65,3.07-2.72,4.72-.94,1.54-2.36,4.25-3.31,6.02-.83,1.77-1.77,3.66-2.13,4.13-.35,.47-.59,.94-.59,1.18,0,.12-.35,1.06-.94,2.24-.59,1.06-1.42,2.72-1.89,3.66-.35,.94-.83,1.89-1.06,2.24-1.89,2.6-8.27,17.48-10.51,24.8-.35,1.18-1.3,4.13-2.13,6.73-2.24,7.09-2.95,10.39-2.72,12.76,.35,1.65,.47,1.89,.83,1.77,.47-.12,.59,0,.59,.59,0,.47,.35,.94,.59,1.06,.47,.59,2.13,1.3,2.72,1.42,.83,.12,1.3-.24,2.72-2.01,1.3-1.54,1.42-1.89,1.3-2.6-.12-.47,3.43-8.03,5.31-11.46,.59-1.06,1.18-2.36,1.42-2.83,.12-.35,.94-1.77,1.77-2.95,3.78-6.02,4.84-7.8,6.5-10.39,1.06-1.54,2.13-3.31,2.72-4.02,.35-.83,1.42-2.24,2.48-3.43,.83-1.06,2.72-3.31,3.9-4.84,3.43-4.49,9.33-11.34,10.98-12.52,1.18-.94,1.54-1.06,1.89-.94,.71,.47,.71,.71,.12,3.43-.35,1.3-.59,3.07-.71,4.02s-.47,2.36-.59,3.43c-1.18,6.14-1.3,7.44-.94,10.98,.35,3.19,.35,3.78,1.3,5.43,1.77,3.43,3.19,4.61,6.73,5.79l2.01,.59,2.6-.59c3.43-.94,4.72-1.77,7.91-4.84,2.36-2.48,3.54-4.13,2.83-4.49h0Zm-51.85-2.13c-1.18,2.83-1.77,3.9-1.42,2.48,.47-1.06,2.72-6.61,3.19-7.2,.47-.71,0,.59-1.77,4.72h0Zm12.87-27.17c-.24,.59-.83,1.77-1.06,2.6-.47,.83-1.18,2.24-1.65,3.07-.59,.95-1.18,2.01-1.42,2.48-.12,.47-1.06,2.13-2.01,3.78-.83,1.77-2.01,4.25-2.72,5.91-1.06,2.48-1.42,3.07-1.54,2.6,0-.12,2.01-4.61,2.83-6.26,.35-.83,1.06-2.24,1.42-3.19,.47-.94,.83-2.01,1.06-2.24,.12-.12,.71-1.3,1.06-2.24,.35-1.06,1.06-2.13,1.18-2.36,.24-.24,.47-.59,.47-.71-.12-.24,.24-.83,.71-1.42,.35-.71,.83-1.3,1.06-1.65,.24-.24,.35-.71,.35-.71,0-.24,1.54-3.54,1.77-3.54,.12,0-.94,2.72-1.54,3.9h0Zm2.72-5.79c-.24,.71-.59,1.06-.59,.83-.12-.35,.94-2.13,1.06-2.01s0,.71-.47,1.18h0Zm2.36-4.37c-.35,.71-.71,1.54-.94,1.77-.35,.35-.35,.24-.24-.24,0-.24,.24-.59,.35-.59,.24,0,.24-.12,.24-.35,0-.12,.24-.71,.59-1.18l.71-.83-.71,1.42Zm2.83-8.5c.94-1.65,2.13-3.78,2.72-4.96,.59-.94,1.3-1.77,1.3-1.77,.47-.12,.47,0-3.19,6.5-1.65,3.07-2.48,4.25-2.6,3.66,0-.12,.71-1.65,1.77-3.43h0Zm-3.66,6.73c.83-1.42,1.42-2.72,1.54-2.83,0-.12,.12-.24,.24,0,.24,0-.12,.94-1.77,3.9-.94,1.54-1.42,2.13-1.42,1.65,0-.12,.59-1.3,1.42-2.72h0Zm-6.14,7.32c.24,.12,.35,0,.35-.24s0-.59,.24-.71c.12-.24,.35-.71,.47-1.18,.24-.47,.47-.71,.59-.71,.59-.12,.47,.12-.47,1.77-.83,1.54-.94,1.65-1.3,1.18-.24-.12-.12-.12,.12-.12h0Zm-4.37,7.91c.59-.95,1.3-2.36,1.65-3.19,.35-.83,.83-1.65,.94-1.77,.24-.24,.47-.59,.59-.83,0-.24,.12-.71,.35-.95,.47-.83,1.06-.71,.71,.12-.24,.35-.35,.47-.59,.35q-.24,0-.12,.12c.24,.24,0,.71-.35,1.18-.35,.35-1.18,1.77-1.77,3.19-.59,1.3-1.3,2.6-1.54,2.83-.24,.24-.47,.47-.47,.71,0,.12,.24,.12,.47-.12,.12-.24,.35-.35,.47-.24,.12,0-.12,.35-.35,.71q-.35,.59-.71,.12c0-.35,.12-1.18,.71-2.24h0Zm-15.59,44.41c0,.35-.24,1.18-.47,1.65q-.24,.59-.24,0c.12-.35,.35-.94,.47-1.42q.24-.71,.24-.24h0Zm.59-1.77c-.12,.59-.35,.94-.47,.94,0-.12,.35-1.06,.71-2.36,.47-1.3,.94-2.72,1.06-3.19,.12-.59,.83-2.6,1.65-4.49,.71-1.89,1.3-3.66,1.3-3.66,0-.12,.83-2.13,1.89-4.61,.94-2.48,1.77-4.72,1.77-4.72-.12-.47-.59-.35-.71,0-.12,.24-.12,0,0-.35,0-.47,0-.71-.24-.59-.12,.12-.35,.12-.35-.24,0-.12-.24-.24-.35-.12-.12,0-.12,.47-.12,.71,.12,.35,.12,.83,0,1.06-.24,.35-.47,.83-.35,1.18,0,.35,.12,.35,.59-.35,.47-.71,.47-.47-.24,1.3-.59,1.18-.83,2.24-.83,2.48,0,.12-.71,2.13-1.65,4.37-.94,2.24-2.24,5.43-2.83,7.2-.71,1.77-1.42,3.66-1.77,4.13-.83,1.3-.83,.71,0-.59,.47-1.06,.47-1.18-.12-.71-.47,.35-1.06,2.6-.83,3.07,.24,.12,.12,.12-.12,0-.12,0-.24,.12-.12,.71,0,.47,.12,.83,.24,.83,.47-.12-.12,1.77-.71,2.36-.12,.35-.71,1.54-.94,2.72-.47,1.3-.83,2.72-1.06,3.07-.71,1.77-.71,.59-.12-2.13,.12-1.18,.59-2.13,.71-2.13,.24,0,.47-.12,.59-.35,0-.24-.12-.24-.24-.12-.24,.12-.35,.12-.35-.12-.12-.59,3.9-12.87,5.91-18.07,4.37-11.81,7.09-18.07,7.68-18.07,.35,.12,1.06-.47,.94-.83,0-.24-.24-.24-.35-.12-.35,.12-.35,0-.24-.47,.24-1.18,.94-1.89,1.06-1.42,.12,.12,.24,.12,.47-.12,.12-.35,.12-.47-.24-.59q-.35,0,0-.83c.35-.71,.35-.83,.83-.35q.35,.35,.35,0c-.12-.71,.71-2.36,1.06-2.24,.12,.12,.12,0,0-.12-.12-.24-.35-.24-.59,.12-.47,.35-.47,.24-.12-.35,.12-.35,.35-.47,.71-.47,.24,.12,.47,0,.47-.47,.12-.35,.24-.35,.59-.24,.35,.24,.35,.35-.12,.83-.24,.35-.47,.94-.59,1.18-.12,.35-.35,1.06-.83,1.54-.24,.47-.59,.94-.59,1.18,0,1.06-.71,2.13-1.18,2.13-.35,.12-.47,.12-.24,.35,.35,.24,.35,.59-.12,1.42-.35,.59-.59,.94-.71,.71-.12-.12-.47-.12-.59-.12-.35,.35-.24,.71,.12,.71,.47,.12,.35,.35-.12,1.42-.47,1.42-.59,2.13-.12,1.89,.12-.12,.83-1.65,1.65-3.43,.83-1.77,1.77-4.02,2.36-4.96,.47-.94,.83-1.77,.83-1.89,0-.47,4.02-8.39,5.43-10.51,.71-1.42,1.42-2.6,1.42-2.83,0,0,2.13-4.25,2.6-4.96,0-.12,.12-.12,.12-.12,.47,.35-2.36,6.02-4.84,10.39-1.06,1.54-2.01,3.66-2.48,4.49-.59,1.65-2.95,6.5-4.25,9.33-.47,.83-.83,1.65-1.06,2.13-.35,1.18-.83,2.13-1.06,2.83-.35,.59-1.18,2.48-3.43,8.39-.59,1.42-1.3,2.83-1.3,3.19,0,.47-.83,2.48-1.89,4.61-1.42,3.43-2.01,4.84-3.54,9.45h0Zm2.13-2.13c-.24,.24-.35,.35-.35,.24,0-.24,.12-.47,.24-.71,.12-.24,.12-.35,.24-.24,0,.24-.12,.47-.12,.71h0Zm3.43-9.8c-.35,1.3-2.01,5.32-2.01,5.2-.12-.35,1.77-5.2,2.01-5.55,.12-.12,.12,0,0,.35h0Zm.59-2.01c0-.12,.12-.59,.35-.94,.24-.35,.35-.59,.35-.35,0,0-.12,.47-.24,.83-.24,.35-.47,.59-.47,.47h0Z"/>
      <path class="cls-1" d="M193.7,62.87c.59-.71,1.42-1.77,1.77-2.6,.47-.83,1.54-2.24,2.36-3.07,1.42-1.65,2.01-2.24,1.06-1.65q-.35,.24-.35-.12c0-.24,.12-.83,.47-1.06,.94-1.3,0-.94-1.54,.59-1.42,1.3-1.3,1.3,.35-.83,1.3-1.3,2.01-2.36,2.01-2.48-.24-.12-1.77,1.42-4.96,4.61-.83,.83-2.6,2.6-4.02,3.9-1.3,1.3-3.07,2.95-3.66,3.66-1.77,1.77-4.96,4.37-6.97,5.79-.94,.71-2.95,2.24-4.37,3.43-2.6,1.89-3.54,2.48-2.72,1.54q.35-.47-.24,0c-1.42,.83-2.72,1.89-2.72,2.13,0,.35-1.42,1.54-2.13,1.54-.12,0-1.42,.59-2.72,1.42-6.5,3.78-12.87,5.91-19.25,6.5-2.83,.24-5.79-.59-5.79-1.54,0-.12,.83-.59,1.89-1.06,5.55-2.13,8.39-3.66,15.35-8.15,2.48-1.54,6.38-5.2,8.03-7.56,1.77-2.24,2.6-4.37,2.83-6.5,.35-2.13-.59-3.78-3.54-6.38-2.24-2.13-3.9-2.95-6.26-3.54-.71-.12-2.01-.35-2.95-.59-.94-.12-2.01-.24-2.48-.12-.94,.12-2.95,1.89-5.2,4.37-.94,.94-1.89,2.01-2.36,2.48-2.13,2.13-6.61,8.5-8.62,12.52-2.13,4.49-2.83,8.74-2.01,11.69,.12,.35,0,.71-.59,.83-.83,.47-.83,.71,.12,.83,.59,.12,1.06,.47,1.65,1.3,1.42,2.24,6.85,6.73,7.68,6.26,.24-.12,.59,0,1.06,.24,1.77,.94,12.28-.59,15-2.24,.35-.12,2.01-.94,3.66-1.77,4.13-2.01,9.09-5.08,13.23-8.03,1.89-1.54,13.46-12.28,14.88-14.06,.59-.59,1.42-1.65,2.01-2.24h0Zm-50.43,10.04c2.01-3.66,5.2-7.91,8.98-12.28,4.25-4.84,6.02-5.91,8.39-5.31,1.77,.47,2.13,.83,2.36,2.01,.24,1.3-.94,4.72-2.13,6.26-1.3,1.65-5.91,6.02-8.27,7.91-1.18,.83-2.24,1.65-2.24,1.77-.59,.47-3.54,2.48-6.26,4.13-3.54,2.24-3.78,2.36-3.78,2.24,0-.59,1.54-4.02,2.95-6.73h0Zm40.98-2.24c-.47,.59-1.42,1.65-2.36,2.36-1.06,1.06-.94,.71,.71-.94,2.36-2.36,3.19-3.07,1.65-1.42h0Z"/>
    </g>
  </g>
</svg>